{"glyphs":{":":{"x_min":0,"x_max":196,"ha":196,"o":"m 98 435 b 124 435 146 454 146 479 b 146 503 124 523 98 523 b 71 523 50 503 50 479 b 50 454 71 435 98 435 z m 98 -45 b 124 -45 146 -26 146 -1 b 146 23 124 43 98 43 b 71 43 50 23 50 -1 b 50 -26 71 -45 98 -45 z"},"$":{"x_min":0,"x_max":518,"ha":518,"o":"m 460 616 b 449 646 415 695 313 699 b 313 705 313 710 313 714 b 314 728 301 740 284 742 b 265 744 250 733 247 716 b 246 713 245 705 245 694 b 133 671 52 582 50 502 b 47 394 149 348 238 306 b 238 209 240 116 244 56 b 238 56 232 55 226 55 b 224 55 223 55 221 55 b 190 55 169 66 161 86 b 152 113 166 150 197 177 b 203 181 203 189 199 195 b 194 200 186 201 181 196 b 141 162 124 115 137 78 b 149 47 179 30 221 30 b 223 30 224 30 226 30 b 233 30 239 30 246 30 b 247 20 248 12 249 5 b 252 -12 266 -21 279 -21 b 280 -21 280 -21 281 -21 b 289 -21 296 -17 300 -12 b 305 -6 308 1 308 9 b 308 13 308 24 308 40 b 407 67 447 139 448 190 b 450 268 383 309 310 344 b 311 466 312 588 313 658 b 322 659 331 659 341 659 b 381 659 410 646 427 622 b 438 606 443 586 442 569 b 440 542 427 514 405 494 b 399 489 399 481 404 476 b 408 471 417 470 422 475 b 442 493 455 516 463 539 b 463 541 463 542 464 543 b 465 547 465 550 466 554 b 470 575 468 597 460 616 z m 238 380 b 176 412 126 449 128 513 b 129 544 150 580 182 607 b 197 619 216 632 243 642 b 241 578 239 480 238 380 z m 389 170 b 388 133 358 95 309 73 b 309 114 309 171 310 236 b 310 248 310 259 310 271 b 356 246 390 215 389 170 z"},"?":{"x_min":0,"x_max":430,"ha":430,"o":"m 366 668 b 345 702 302 718 234 718 b 167 718 117 694 85 647 b 70 625 62 601 57 578 b 52 561 50 543 50 525 b 50 518 56 512 63 512 b 70 512 75 518 76 525 b 76 539 77 551 79 563 b 85 592 97 618 116 638 b 142 669 179 686 221 686 b 271 686 302 675 315 655 b 341 611 291 515 238 414 b 184 310 122 192 122 92 b 122 75 142 65 160 65 b 180 65 193 76 193 93 b 193 170 243 271 291 369 b 351 489 407 603 366 668 z m 163 -46 b 189 -46 211 -26 211 -2 b 211 22 189 42 163 42 b 136 42 115 22 115 -2 b 115 -26 136 -46 163 -46 z"},"<":{"x_min":0,"x_max":568,"ha":568,"o":"m 506 104 b 483 123 253 286 129 349 b 162 372 213 407 265 444 b 364 512 467 583 494 604 b 505 613 507 628 498 642 b 489 655 471 663 452 652 b 415 632 135 451 62 371 b 56 365 52 358 51 350 b 50 348 50 345 50 342 b 50 333 55 323 67 316 b 83 307 159 256 240 202 b 339 137 441 70 470 52 b 474 49 479 48 484 48 b 495 48 506 54 512 63 b 522 77 519 93 506 104 z"},"'":{"x_min":0,"x_max":184,"ha":184,"o":"m 119 719 b 111 719 100 719 89 719 b 79 718 69 718 63 718 b 59 718 56 717 53 714 b 51 711 50 708 50 704 b 50 701 54 669 59 640 b 66 599 71 582 86 582 b 97 582 107 591 121 635 b 127 656 134 685 134 700 b 134 718 121 719 119 719 z"},"=":{"x_min":0,"x_max":703,"ha":703,"o":"m 83 390 b 100 389 183 388 280 387 b 416 386 585 384 623 383 b 623 383 623 383 624 383 b 639 383 651 395 653 411 b 654 426 646 441 625 445 b 583 452 190 458 80 445 b 59 443 49 428 50 416 b 50 410 53 403 58 398 b 64 393 72 390 83 390 z m 625 320 b 583 328 190 334 80 321 b 59 318 49 304 50 291 b 50 285 53 279 58 274 b 64 269 72 265 83 265 b 100 265 183 264 280 263 b 416 261 585 259 623 258 b 623 258 623 258 624 258 b 639 258 651 271 653 287 b 654 301 646 317 625 320 z"},"a":{"x_min":0,"x_max":347,"ha":347,"o":"m 367 173 b 361 175 354 171 352 164 l 350 160 b 341 127 333 102 324 82 b 324 82 324 81 323 80 l 323 79 b 307 42 296 38 292 38 b 292 38 290 38 287 41 b 257 75 265 270 270 319 b 271 326 268 332 263 336 b 252 343 230 343 218 338 b 208 333 206 326 206 322 b 206 320 205 310 204 294 b 203 294 203 294 203 294 b 185 320 159 333 130 333 b 46 333 0 233 0 139 b 0 99 8 63 24 36 b 42 4 69 -13 102 -13 b 123 -13 143 -3 161 15 b 176 30 188 49 198 70 b 201 77 204 84 207 92 b 212 53 221 20 237 2 b 246 -8 258 -13 270 -13 b 310 -13 344 41 375 153 l 376 157 b 378 164 374 171 367 173 z m 201 216 b 200 206 200 195 201 185 b 201 185 201 184 201 184 b 200 154 190 115 175 82 b 175 82 175 82 175 81 b 166 65 144 27 117 27 b 91 27 71 75 71 140 b 71 179 78 218 92 246 b 102 267 119 292 148 292 b 182 292 199 256 200 222 b 201 220 201 218 201 217 b 201 216 201 216 201 216 z"},"L":{"x_min":0,"x_max":449,"ha":449,"o":"m 644 -32 b 642 -25 635 -21 628 -23 b 388 -83 326 -15 271 46 b 264 53 257 61 250 68 b 280 166 278 315 277 449 b 276 581 275 717 307 748 b 311 752 315 754 320 754 b 327 754 333 760 333 767 b 333 774 327 780 320 780 b 244 780 227 680 221 647 b 209 573 209 473 208 376 b 208 279 208 180 196 107 b 182 112 166 115 147 115 b 97 115 66 88 55 55 b 54 55 54 54 54 54 b 51 46 50 37 50 28 b 50 8 58 -10 72 -23 b 87 -38 109 -46 135 -46 b 163 -46 187 -36 206 -16 b 220 -2 232 18 241 41 b 245 37 248 33 252 29 b 294 -17 343 -72 468 -72 b 512 -72 567 -65 634 -48 b 641 -46 645 -39 644 -32 z m 119 -9 b 104 -9 92 -4 84 5 b 77 15 75 30 79 47 b 87 70 110 90 147 90 b 164 90 178 87 191 81 b 178 26 156 -9 119 -9 z"},"3":{"x_min":0,"x_max":424,"ha":424,"o":"m 345 313 b 320 337 288 352 248 360 b 272 374 293 394 311 421 b 342 465 361 523 361 575 b 361 615 350 650 329 675 b 306 703 271 718 227 718 b 156 718 114 683 91 653 b 64 619 53 580 52 554 b 52 553 52 552 52 551 b 51 550 51 549 51 548 b 51 541 57 535 64 535 b 71 535 77 541 77 548 b 77 549 77 550 77 550 b 79 597 133 682 206 682 b 235 682 257 671 272 650 b 286 630 293 602 293 568 b 293 522 280 471 258 431 b 237 391 209 368 183 368 b 177 368 172 363 171 357 b 170 356 170 356 170 355 b 170 355 170 354 170 354 b 170 354 170 353 170 353 b 171 346 176 341 183 341 b 188 341 194 341 199 341 b 238 337 269 322 292 294 b 314 267 326 230 326 188 b 326 109 280 27 204 27 b 168 27 140 47 123 65 b 96 92 77 130 76 158 b 76 159 76 161 76 162 b 76 169 70 174 63 174 b 63 174 63 174 63 174 b 56 174 50 169 50 162 b 50 161 50 161 50 161 b 50 160 50 160 50 159 b 50 124 66 72 104 34 b 135 3 177 -14 224 -14 b 321 -14 394 95 394 192 b 394 241 377 283 345 313 z"},";":{"x_min":0,"x_max":196,"ha":196,"o":"m 146 -1 b 145 23 124 42 98 42 b 71 42 50 22 50 -2 b 50 -26 71 -46 98 -46 b 101 -46 103 -46 106 -46 b 103 -59 97 -69 92 -70 b 92 -70 92 -70 92 -70 b 85 -70 79 -76 79 -83 b 79 -90 85 -95 92 -95 b 93 -95 94 -95 95 -95 b 105 -94 114 -88 123 -79 b 140 -59 149 -27 146 -1 z m 98 435 b 125 435 146 454 146 479 b 146 503 125 523 98 523 b 72 523 50 503 50 479 b 50 454 72 435 98 435 z"},"J":{"x_min":0,"x_max":454,"ha":454,"o":"m 444 722 b 368 722 351 633 345 603 b 333 538 332 449 332 363 b 331 196 331 24 243 24 b 210 24 188 47 188 82 b 188 82 188 82 188 83 b 188 95 192 108 199 119 b 215 142 245 153 284 148 b 291 147 297 152 298 159 b 299 166 294 173 287 174 b 221 181 190 152 178 133 b 168 118 162 101 162 83 b 162 83 162 83 162 82 b 162 82 162 82 162 82 b 162 66 166 51 173 36 b 189 5 221 -13 259 -13 b 289 -13 314 -2 334 18 b 404 88 402 269 401 428 b 400 542 399 660 429 690 b 433 694 438 696 444 696 b 451 696 456 702 456 709 b 456 716 451 722 444 722 z m 581 816 b 574 816 568 810 568 803 b 568 802 568 802 568 801 b 568 796 566 793 563 790 b 542 770 465 774 390 778 b 276 784 148 790 86 732 b 62 709 50 679 50 641 b 50 634 56 629 63 629 b 70 629 76 634 76 641 b 76 643 76 644 76 645 b 76 664 83 679 95 691 b 139 735 255 733 358 732 b 457 731 543 730 578 764 b 588 774 593 786 594 801 b 594 801 594 802 594 803 b 594 810 588 816 581 816 z"},"V":{"x_min":0,"x_max":668,"ha":668,"o":"m 688 780 b 681 780 675 775 674 768 b 674 766 653 555 613 356 b 592 253 570 171 546 113 b 531 76 516 49 501 32 b 489 19 478 13 467 13 b 390 13 374 212 359 388 b 342 589 326 780 229 780 b 203 780 177 766 152 739 b 131 717 113 687 98 656 b 97 656 97 655 97 654 b 96 653 96 653 96 652 b 95 651 95 650 94 649 b 94 649 94 649 94 649 b 65 589 49 527 50 510 b 51 503 57 498 64 498 b 71 499 76 505 76 512 b 75 526 94 594 126 655 b 126 655 126 656 126 656 b 143 685 177 731 210 731 b 228 731 245 699 257 640 b 269 580 276 499 283 412 b 301 193 320 -33 433 -33 b 463 -33 494 -17 521 15 b 522 16 523 18 523 19 b 565 70 603 179 638 351 b 679 551 698 757 699 766 b 700 773 695 779 688 780 z"},"\"":{"x_min":0,"x_max":280,"ha":280,"o":"m 215 719 b 207 719 196 719 185 719 b 175 718 165 718 159 718 b 155 718 152 717 149 714 b 147 711 146 708 146 704 b 146 701 150 669 155 640 b 162 599 167 582 182 582 b 193 582 203 591 217 635 b 223 656 230 685 230 700 b 230 718 217 719 215 719 z m 119 719 b 111 719 100 719 89 719 b 79 718 69 718 63 718 b 59 718 56 717 53 714 b 51 711 50 708 50 704 b 50 701 54 669 59 640 b 66 599 71 582 86 582 b 97 582 107 591 121 635 b 127 656 134 685 134 700 b 134 718 121 719 119 719 z"},"7":{"x_min":0,"x_max":458,"ha":458,"o":"m 395 715 b 390 715 386 715 382 714 b 379 713 374 713 367 712 b 334 708 265 700 201 698 b 97 694 77 710 73 714 b 68 720 60 721 55 716 b 49 712 48 703 53 698 b 67 681 105 672 171 672 b 219 672 281 676 359 685 b 355 658 324 562 291 460 b 235 285 165 67 167 -1 b 167 -20 182 -31 196 -31 l 196 -31 b 211 -31 228 -20 228 1 b 229 17 273 159 313 285 b 380 499 427 653 428 685 b 429 698 417 713 395 715 z"},"S":{"x_min":0,"x_max":491,"ha":491,"o":"m 456 695 b 442 726 403 780 299 780 b 160 780 52 657 50 547 b 47 421 148 366 238 317 b 316 274 391 234 389 152 b 387 70 303 15 225 13 b 224 13 222 13 221 13 b 192 13 173 24 164 46 b 150 79 164 128 198 162 b 203 167 203 176 198 181 b 193 185 185 185 180 180 b 138 138 122 79 140 36 b 153 4 182 -13 221 -13 b 223 -13 224 -13 226 -13 b 386 -10 447 101 448 176 b 450 277 367 325 286 371 b 204 418 126 463 128 561 b 129 599 150 643 183 675 b 212 704 262 737 341 737 b 377 737 404 725 421 701 b 437 679 443 650 442 625 b 441 616 440 607 438 598 b 437 598 437 598 437 598 b 437 597 437 597 437 596 b 431 574 420 553 404 535 b 399 530 399 522 404 517 b 410 513 418 513 423 518 b 441 538 454 563 461 589 b 461 589 462 590 462 590 b 465 601 467 614 467 628 b 468 628 468 628 468 628 b 469 651 465 674 456 695 z"},"}":{"x_min":0,"x_max":264,"ha":264,"o":"m 214 357 b 213 363 208 368 201 368 b 200 368 199 368 197 368 b 197 368 197 368 197 368 b 188 369 181 372 175 378 b 153 400 154 460 155 518 b 155 588 156 661 120 697 b 106 711 88 718 65 719 b 64 719 64 719 63 719 b 56 719 50 713 50 706 b 50 699 56 693 63 693 b 67 693 70 692 72 690 b 87 675 86 625 85 577 b 84 501 82 416 126 371 b 132 365 139 360 147 355 b 139 351 132 346 126 340 b 82 295 84 210 85 134 b 86 86 87 35 72 21 b 70 19 67 17 63 17 b 56 17 50 12 50 5 b 50 -2 56 -8 63 -8 b 64 -8 64 -8 65 -8 b 88 -8 106 0 120 14 b 156 50 155 122 155 192 b 154 251 153 311 175 333 b 181 339 188 342 197 343 b 197 343 197 343 197 343 b 199 342 200 342 201 342 b 208 342 214 348 214 354 b 214 355 214 355 214 356 b 214 356 214 356 214 357 z"},"Z":{"x_min":0,"x_max":501,"ha":501,"o":"m 504 6 b 500 12 493 15 486 11 b 454 -5 341 -54 242 -65 b 242 -65 241 -65 241 -65 b 237 -65 232 -66 227 -66 b 227 -66 227 -66 227 -66 b 193 -69 162 -66 137 -56 b 129 -53 125 -47 122 -39 b 99 29 221 236 319 403 b 436 600 500 714 472 753 b 456 775 415 784 349 780 b 295 777 230 764 177 747 b 112 725 83 703 72 685 b 71 684 70 682 70 681 b 69 680 69 679 68 678 b 67 675 66 672 66 670 b 66 669 66 669 66 669 b 66 668 65 667 65 667 b 65 665 65 664 65 663 b 65 663 65 663 65 663 b 65 662 65 662 65 662 b 65 661 65 661 65 661 b 65 661 65 660 66 660 b 66 660 66 659 66 659 b 66 657 67 656 68 655 b 69 654 69 654 70 653 b 72 652 74 651 77 650 b 77 650 78 650 78 650 b 79 650 79 650 79 650 b 80 650 80 650 80 651 b 83 651 85 652 86 653 b 87 654 87 654 87 654 b 90 657 91 660 91 664 b 91 665 91 666 91 667 b 91 667 91 667 91 667 b 91 667 92 668 92 668 b 95 676 108 687 136 700 b 166 714 207 726 251 734 b 345 752 404 744 408 731 b 409 728 410 711 375 642 b 349 594 313 532 274 467 b 212 362 141 243 96 143 b 62 67 22 -40 77 -78 b 96 -91 128 -95 164 -95 b 185 -95 208 -94 229 -92 b 231 -92 232 -92 234 -91 b 357 -81 496 -12 498 -11 b 504 -8 507 0 504 6 z"},"x":{"x_min":0,"x_max":290,"ha":290,"o":"m 313 172 b 306 176 299 173 296 166 b 283 140 270 117 259 97 b 248 80 219 35 199 35 b 172 35 130 72 93 127 b 127 197 170 282 198 293 b 204 295 208 302 205 309 b 203 316 195 319 189 317 b 155 304 122 244 77 153 b 47 206 29 261 29 303 b 29 322 14 336 -7 337 b -7 337 -8 337 -8 337 b -33 337 -47 320 -47 303 b -49 244 -11 150 40 80 b 24 48 9 22 -3 9 b -8 4 -8 -5 -2 -9 b 0 -12 3 -13 6 -13 b 10 -13 13 -11 16 -9 b 28 5 43 29 58 57 b 63 51 69 44 75 38 b 107 5 139 -13 168 -13 b 212 -13 252 35 283 88 b 283 88 283 88 283 89 b 297 111 308 134 319 155 b 322 162 319 169 313 172 z"},")":{"x_min":0,"x_max":282,"ha":282,"o":"m 193 601 b 163 678 118 719 63 719 b 56 719 50 713 50 706 b 50 699 56 693 63 693 b 91 693 116 657 134 591 b 151 527 160 441 160 348 b 160 163 123 13 77 13 b 70 13 64 7 64 0 b 64 -7 70 -12 77 -12 b 78 -12 79 -12 80 -12 b 127 -11 167 30 195 107 b 219 172 232 263 232 355 b 232 449 219 537 193 601 z"},"&":{"x_min":0,"x_max":493,"ha":493,"o":"m 326 333 b 298 333 272 320 253 296 b 237 275 227 247 227 219 b 227 170 256 137 301 132 b 294 122 289 113 287 106 b 285 99 289 92 296 90 b 297 90 298 90 300 90 b 305 90 310 93 312 99 b 314 105 321 117 328 127 b 342 149 356 169 352 186 b 350 192 343 197 336 195 b 329 193 325 186 327 179 b 327 175 322 166 316 156 b 315 157 314 157 313 157 b 257 157 253 205 253 219 b 253 241 261 264 273 280 b 283 293 300 308 326 308 b 385 308 417 243 417 181 b 417 157 414 136 407 118 b 407 117 406 116 406 115 b 377 55 330 24 266 24 b 216 24 176 43 150 82 b 126 115 113 163 113 216 b 113 332 167 413 220 422 b 222 422 225 422 227 422 b 228 422 228 422 228 422 b 228 422 228 422 229 422 b 229 422 229 422 230 422 b 230 422 230 422 230 422 b 237 422 242 427 242 434 b 242 434 242 435 242 435 b 242 435 242 435 242 435 b 242 443 237 448 230 448 b 230 448 230 448 229 448 b 226 448 222 448 219 448 b 219 448 219 448 219 448 b 191 451 174 470 164 487 b 140 527 140 586 164 626 b 176 648 200 673 246 673 b 275 673 296 665 310 647 b 326 627 330 594 321 560 b 316 543 308 528 296 521 b 290 517 289 509 292 503 b 296 497 304 495 310 499 b 326 509 338 528 345 552 b 354 579 355 611 347 639 b 332 689 293 717 239 717 b 181 717 132 689 104 640 b 76 591 74 530 100 486 b 115 461 137 443 164 433 b 134 418 108 392 88 357 b 39 271 37 153 83 76 b 106 35 153 -12 244 -12 b 245 -12 245 -12 246 -12 b 310 -12 362 10 397 51 b 411 67 422 86 430 106 b 438 129 443 155 443 182 b 443 255 402 333 326 333 z"},"_":{"x_min":0,"x_max":703,"ha":703,"o":"m 625 376 b 583 383 190 389 80 376 b 59 373 49 359 50 347 b 51 335 61 321 83 321 b 100 320 183 319 279 318 b 416 317 585 315 623 314 b 623 314 623 314 624 314 b 639 314 651 326 653 342 b 654 356 646 372 625 376 z"},"v":{"x_min":0,"x_max":370,"ha":370,"o":"m 396 174 b 343 174 305 187 278 203 b 283 226 285 249 285 269 b 285 297 281 319 272 336 b 262 356 245 367 224 367 b 196 367 178 346 178 313 b 178 277 199 237 232 206 b 237 201 243 196 250 192 b 248 186 247 180 246 175 b 229 118 194 41 165 41 b 155 41 146 45 138 55 b 86 109 70 283 71 302 b 72 314 67 325 57 331 b 46 338 30 338 18 332 b 6 326 0 316 -1 303 b -2 279 4 223 17 166 b 28 116 49 49 84 13 b 100 -4 118 -13 138 -13 b 175 -13 213 24 243 90 b 255 117 266 147 273 177 b 302 161 343 148 396 148 b 403 148 409 154 409 161 b 409 168 403 174 396 174 z m 255 220 b 253 222 251 223 249 225 b 216 256 204 292 204 313 b 204 323 207 341 224 341 b 231 341 242 340 249 324 b 256 312 259 293 259 269 b 259 254 258 237 255 220 z"},"O":{"x_min":0,"x_max":543,"ha":543,"o":"m 461 660 b 453 673 445 685 437 695 b 395 749 344 779 289 779 b 224 779 163 737 118 660 b 74 586 50 488 50 383 b 50 278 74 180 118 106 b 163 29 224 -13 289 -13 b 351 -13 409 25 454 94 b 454 94 454 94 454 95 b 456 98 458 102 461 106 b 505 180 529 278 529 383 b 529 488 505 586 461 660 z m 434 110 b 433 110 433 109 433 109 b 418 89 365 24 315 24 b 264 24 216 59 180 124 b 144 191 123 283 123 383 b 123 588 202 737 310 737 b 371 737 410 689 420 675 b 421 673 422 672 423 671 b 472 604 503 499 503 383 b 503 275 477 178 434 110 z"},"(":{"x_min":0,"x_max":282,"ha":282,"o":"m 220 719 b 164 719 119 678 89 601 b 64 537 50 449 50 355 b 50 263 64 172 87 107 b 115 30 155 -11 203 -12 b 204 -12 205 -12 206 -12 b 213 -12 218 -7 218 0 b 218 7 213 13 206 13 b 160 13 122 163 122 348 b 122 441 131 527 149 591 b 167 657 192 693 220 693 b 227 693 232 699 232 706 b 232 713 227 719 220 719 z"},"C":{"x_min":0,"x_max":548,"ha":548,"o":"m 572 172 b 565 175 558 172 555 166 b 553 162 537 129 508 94 b 508 94 508 94 508 94 l 508 94 b 487 69 451 28 398 28 b 336 28 299 75 279 114 b 252 168 237 242 237 324 b 237 373 242 423 253 470 b 315 472 378 490 423 518 b 494 562 545 628 556 683 b 560 699 559 715 556 728 b 550 747 532 780 472 780 b 378 780 298 726 239 626 b 218 589 201 547 188 503 b 170 507 155 512 142 520 b 98 544 76 585 76 641 b 76 648 70 654 63 654 b 56 654 50 648 50 641 b 50 576 77 526 129 497 b 145 488 163 482 181 478 b 168 425 161 368 161 313 b 161 224 179 145 212 87 b 249 21 305 -13 374 -13 b 421 -13 467 11 512 59 b 517 65 523 72 528 78 b 528 78 528 78 528 79 b 558 116 576 150 578 155 b 581 161 578 169 572 172 z m 490 739 b 507 739 519 735 525 727 b 535 716 533 698 531 688 b 531 688 531 688 531 688 b 522 643 480 584 409 540 b 363 511 308 497 259 496 b 295 631 373 739 490 739 z"},"W":{"x_min":0,"x_max":1017,"ha":1017,"o":"m 1010 780 b 1003 780 996 775 996 768 b 995 763 995 756 994 746 b 989 676 974 490 946 322 b 900 43 851 13 832 13 b 810 13 756 41 710 302 b 683 456 671 630 671 699 b 671 718 655 732 635 732 b 615 732 600 718 600 700 b 600 700 600 700 600 700 b 596 652 580 483 550 322 b 533 229 514 155 494 103 b 482 73 470 50 458 34 b 447 20 436 13 425 13 b 397 13 375 50 359 124 b 344 195 337 293 329 388 b 322 482 315 579 300 651 b 288 706 266 780 212 780 b 190 780 169 769 149 747 b 125 721 104 684 89 646 b 63 587 49 526 50 510 b 51 503 57 498 64 498 b 71 499 76 505 76 512 b 75 523 88 578 111 634 b 112 635 112 636 112 636 b 112 637 113 638 113 639 b 113 639 113 639 113 639 b 115 643 116 646 118 650 b 118 650 118 650 118 650 b 133 680 165 731 195 731 b 204 731 221 719 235 641 b 246 580 252 499 259 413 b 275 193 292 -33 394 -33 b 434 -33 466 3 478 19 b 478 19 478 19 478 19 b 492 36 505 61 518 93 b 538 147 558 223 575 317 b 589 394 600 472 609 539 b 614 467 624 382 638 299 b 654 204 674 127 697 73 b 726 2 761 -33 801 -33 b 843 -33 872 6 882 18 b 883 19 883 19 883 19 b 896 37 907 61 919 92 b 938 146 956 222 971 318 b 999 487 1014 674 1020 744 b 1020 754 1021 761 1021 766 b 1022 773 1017 779 1010 780 z"},"A":{"x_min":0,"x_max":757,"ha":757,"o":"m 779 173 b 773 175 765 172 763 166 b 761 161 758 155 756 149 b 751 135 743 116 735 97 b 735 96 734 95 734 95 b 726 76 708 38 694 38 b 693 38 688 38 682 44 b 655 72 636 171 627 329 b 642 329 656 329 672 328 b 678 328 682 328 685 328 b 692 328 698 334 698 341 b 698 348 692 354 685 354 b 683 354 678 354 672 354 b 656 354 641 354 626 354 b 621 461 620 593 623 746 b 624 755 624 761 624 763 b 624 768 621 777 606 780 b 600 781 592 781 587 781 b 580 781 572 781 566 779 b 522 775 489 680 431 502 b 414 452 397 397 377 343 b 281 332 219 313 192 286 b 181 275 175 262 175 248 b 175 241 181 235 188 235 b 195 235 200 241 200 248 b 200 255 204 262 210 268 b 225 283 264 303 367 316 b 308 158 235 13 147 13 b 108 13 91 35 84 48 b 72 71 73 99 87 119 b 103 142 133 153 172 148 b 179 147 185 152 186 159 b 187 166 182 173 175 174 b 109 181 78 152 66 133 b 47 105 45 67 61 36 b 78 5 109 -13 147 -13 b 211 -13 271 44 329 161 b 353 208 375 263 396 319 b 439 324 493 327 558 328 b 568 153 592 45 630 6 b 642 -7 655 -13 670 -13 b 704 -13 730 26 754 77 b 754 78 755 79 755 80 b 756 82 757 84 758 86 l 759 87 b 759 88 759 89 759 89 b 766 105 773 122 780 139 b 782 146 784 151 786 156 b 789 163 786 170 779 173 z m 405 346 b 423 396 440 447 455 494 b 479 566 501 634 522 683 b 537 718 548 736 556 745 b 556 743 556 741 556 738 b 552 587 552 459 557 354 b 500 353 449 350 405 346 z"},"f":{"x_min":0,"x_max":202,"ha":202,"o":"m 205 169 b 174 133 142 103 69 100 b 69 124 69 148 69 174 b 68 220 67 267 68 314 b 108 338 155 395 191 466 b 203 490 213 514 221 536 b 223 541 225 547 226 553 b 226 553 226 553 226 553 b 240 597 244 636 237 664 b 228 701 201 721 161 721 b 61 721 32 635 19 561 b 0 459 0 311 0 105 l 0 56 b 0 2 0 -59 9 -105 b 20 -164 46 -194 84 -194 b 113 -194 134 -169 147 -135 b 147 -135 147 -135 147 -135 b 162 -104 162 -61 162 -57 b 162 -57 162 -56 162 -56 b 162 -54 162 -52 162 -50 b 162 -11 154 24 139 50 b 132 62 123 72 114 80 b 167 92 197 121 225 153 b 229 158 229 166 223 171 b 218 175 210 175 205 169 z m 129 667 b 140 678 153 684 169 684 b 183 684 193 679 200 669 b 218 643 210 589 201 559 b 201 558 201 558 201 558 b 200 554 198 549 197 544 b 197 544 197 544 196 544 b 196 543 196 543 196 542 b 189 521 179 499 168 477 b 138 420 101 371 68 345 b 70 489 82 619 129 667 z m 117 37 b 130 15 137 -16 137 -50 b 137 -52 137 -54 137 -56 b 137 -56 137 -56 137 -56 b 137 -57 137 -57 137 -57 b 136 -81 132 -103 126 -121 b 126 -121 126 -121 126 -121 b 121 -133 115 -141 107 -141 b 93 -141 82 -117 75 -73 b 69 -30 69 23 69 62 b 69 64 69 72 69 73 b 89 69 105 57 117 37 z"},"Q":{"x_min":0,"x_max":579,"ha":579,"o":"m 514 -8 b 492 -6 470 -4 446 -2 b 418 1 391 4 364 6 b 397 24 428 54 454 94 b 454 94 454 94 454 95 b 456 98 458 102 461 106 b 505 180 529 278 529 383 b 529 488 505 586 461 660 b 453 673 445 685 437 695 b 395 749 344 779 289 779 b 224 779 163 737 118 660 b 74 586 50 488 50 383 b 50 278 74 180 118 106 b 142 65 171 34 202 14 b 139 12 92 0 73 -30 b 70 -37 72 -44 78 -48 b 80 -49 82 -50 84 -50 b 89 -50 93 -48 95 -44 b 125 5 301 -13 443 -27 b 466 -29 490 -32 512 -34 b 519 -34 525 -29 526 -22 b 526 -15 521 -9 514 -8 z m 180 124 b 144 191 123 283 123 383 b 123 588 202 737 310 737 b 371 737 410 689 420 675 b 421 673 422 672 423 671 b 472 604 503 499 503 383 b 503 275 477 178 434 110 b 433 110 433 109 433 109 b 418 89 365 24 315 24 b 264 24 216 59 180 124 z"},"w":{"x_min":0,"x_max":559,"ha":559,"o":"m 576 174 b 526 174 490 188 464 204 b 467 226 469 247 469 266 b 469 297 464 367 411 367 b 384 367 367 346 367 314 b 367 279 387 238 419 207 b 424 202 429 198 436 193 b 433 179 430 166 426 152 b 426 152 426 152 426 151 l 425 151 b 396 60 371 41 355 41 b 348 41 341 44 334 51 b 288 99 273 276 274 303 b 275 322 262 336 243 337 b 225 337 206 325 205 304 b 205 299 204 294 205 288 b 205 288 205 288 205 288 b 204 287 204 286 204 285 b 203 238 194 168 176 110 b 164 73 146 40 128 40 b 126 40 122 40 116 47 b 100 63 87 104 79 163 b 72 217 70 272 71 303 b 71 322 58 336 38 337 b 38 337 37 337 37 337 b 19 337 1 324 0 303 b -2 219 8 61 61 7 b 74 -6 88 -13 105 -13 b 168 -13 201 83 217 171 b 218 169 218 167 219 165 b 228 114 247 46 279 11 b 294 -5 311 -13 329 -13 b 389 -13 438 83 459 177 b 487 161 526 148 576 148 b 583 148 589 154 589 161 b 589 168 583 174 576 174 z m 441 222 b 439 223 438 224 437 226 b 404 257 393 293 393 314 b 393 324 395 341 411 341 b 441 341 444 289 444 266 b 444 252 443 237 441 222 z"},"E":{"x_min":0,"x_max":525,"ha":525,"o":"m 550 172 b 544 176 536 174 532 168 b 530 165 528 161 525 157 b 515 140 499 113 476 87 b 476 86 475 86 475 86 l 474 84 b 439 47 405 28 371 28 b 323 28 282 49 254 89 b 228 125 214 175 214 229 b 214 333 268 439 371 442 b 373 442 374 442 376 442 b 383 442 389 448 389 455 b 389 462 383 468 376 468 b 348 468 327 478 313 497 b 302 511 295 531 293 553 b 337 557 381 571 418 596 b 457 624 482 664 485 700 b 486 711 485 721 482 731 b 472 762 443 780 401 780 b 352 780 306 757 273 717 b 243 680 226 633 226 586 b 226 584 226 582 226 580 b 193 584 162 594 138 606 b 115 619 76 645 76 688 b 76 695 70 700 63 700 b 56 700 50 695 50 688 b 50 646 77 609 126 584 b 154 569 190 558 229 554 b 234 528 245 504 262 486 b 273 474 286 465 301 457 b 260 445 225 423 198 390 b 162 346 142 286 142 222 b 142 162 160 105 191 61 b 227 13 277 -13 336 -13 b 403 -13 455 25 491 66 b 491 66 491 66 491 66 b 492 66 492 67 493 67 l 494 68 b 494 69 494 69 495 70 b 520 98 537 127 547 144 b 550 148 552 151 554 154 b 557 160 556 168 550 172 z m 421 739 b 454 739 459 717 460 702 b 457 676 440 642 403 617 b 371 595 332 583 292 579 b 297 657 348 739 421 739 z"},"s":{"x_min":0,"x_max":257,"ha":257,"o":"m 275 174 b 233 174 191 162 152 140 b 145 146 137 152 129 157 b 98 179 72 197 73 234 b 73 267 107 307 149 307 b 162 307 170 303 175 296 b 184 282 181 256 173 238 b 173 238 173 238 173 237 b 173 237 173 237 172 236 b 172 236 172 235 172 235 b 172 235 172 234 172 234 b 172 233 172 233 172 232 b 172 232 172 232 172 231 b 172 231 172 230 172 230 b 172 230 172 229 173 229 b 173 228 173 228 173 228 b 173 227 173 227 174 227 b 174 226 174 226 174 226 b 174 225 175 225 175 225 b 175 224 176 224 176 224 b 176 223 176 223 177 223 b 177 223 177 222 178 222 b 178 222 178 222 178 222 b 178 222 179 222 179 221 b 179 221 179 221 180 221 b 180 221 180 221 180 221 b 181 221 181 221 181 220 b 182 220 182 220 183 220 b 183 220 183 220 184 220 b 184 220 185 220 185 220 b 185 220 186 220 186 220 b 187 220 187 220 187 220 b 188 220 188 221 189 221 b 189 221 189 221 190 221 b 190 221 191 221 191 222 b 191 222 192 222 192 222 b 192 222 193 223 193 223 b 193 223 194 224 194 224 b 194 224 194 224 195 225 b 195 225 195 225 195 226 b 196 226 196 226 196 226 b 217 261 220 298 204 325 b 191 348 167 361 136 361 b 83 361 50 333 32 309 b 7 278 -2 243 -2 221 b -3 157 41 127 80 101 b 84 98 88 95 91 93 b 53 53 35 8 44 -24 b 50 -45 67 -59 92 -63 b 92 -63 92 -63 92 -63 b 92 -63 92 -63 92 -63 b 93 -63 94 -64 94 -64 l 95 -64 b 95 -64 96 -64 97 -63 l 97 -63 b 97 -63 97 -63 97 -63 b 97 -63 97 -63 98 -63 b 164 -62 202 1 203 44 b 204 81 189 105 173 122 b 205 139 240 148 275 148 b 282 148 287 154 287 161 b 287 168 282 174 275 174 z m 134 -16 b 126 -30 113 -37 97 -38 b 96 -38 96 -38 96 -38 b 96 -38 96 -38 96 -38 b 81 -35 72 -28 68 -17 b 62 6 79 44 112 77 b 132 61 144 43 144 16 b 144 10 141 -4 134 -16 z"},">":{"x_min":0,"x_max":568,"ha":568,"o":"m 517 350 b 517 350 517 350 517 350 b 516 357 512 365 506 371 b 433 451 152 632 116 652 b 97 663 79 655 70 642 b 61 628 63 613 74 604 b 101 583 203 512 303 444 b 343 416 382 389 412 368 b 422 361 431 355 439 349 b 315 286 85 123 62 104 b 49 93 46 77 56 63 b 62 54 73 48 84 48 b 89 48 94 49 98 52 b 127 70 229 137 328 202 b 409 256 485 307 501 316 b 517 326 520 340 517 350 z"},"l":{"x_min":0,"x_max":193,"ha":193,"o":"m 238 664 b 229 701 202 721 162 721 b 127 721 98 709 75 686 b -4 606 -2 400 1 161 b 1 118 3 -13 85 -13 b 118 -13 147 20 174 63 b 174 63 174 63 174 63 b 174 64 175 64 175 65 b 175 65 175 65 175 65 b 190 89 203 116 216 143 b 218 147 220 150 221 154 b 225 160 222 168 216 171 b 209 174 202 171 198 165 b 197 162 195 158 193 154 b 184 135 169 104 152 76 b 152 76 152 76 151 76 b 151 75 151 74 150 73 b 130 42 119 36 113 36 b 72 36 71 118 70 158 l 70 161 b 70 175 70 191 69 208 b 69 238 68 275 68 313 b 109 338 155 395 192 466 b 204 490 214 514 222 537 b 224 541 226 547 227 553 b 227 553 227 553 227 553 b 241 597 245 636 238 664 z m 202 559 b 202 558 202 558 202 558 b 201 554 199 549 198 544 b 198 544 198 544 197 544 b 197 543 197 543 197 542 b 190 521 180 500 169 477 b 139 419 101 370 68 344 b 69 472 81 616 130 666 b 142 678 155 684 169 684 b 184 684 194 679 201 669 b 219 643 211 589 202 559 z"},"8":{"x_min":0,"x_max":437,"ha":437,"o":"m 385 276 b 385 276 385 276 385 276 b 377 296 350 338 306 359 b 304 361 302 362 299 363 b 362 392 407 457 407 533 b 407 635 327 718 228 718 b 200 718 174 712 150 699 b 106 679 80 640 72 622 b 72 622 72 622 72 622 b 58 595 50 565 50 533 b 50 508 55 484 64 462 b 64 461 64 461 64 461 b 64 461 64 460 64 460 b 64 460 65 460 65 459 b 83 416 116 382 157 363 b 94 333 50 263 50 182 b 50 73 130 -15 228 -15 b 302 -15 365 34 392 104 b 392 104 392 105 392 105 b 393 105 393 106 393 107 b 402 130 407 155 407 182 b 407 216 399 248 385 276 b 385 276 385 276 385 276 z m 88 470 b 80 489 76 511 76 533 b 76 595 109 649 159 675 b 159 675 159 676 159 676 b 173 682 188 686 205 686 b 283 686 335 625 335 533 b 335 438 289 381 211 381 b 163 381 113 417 88 470 z m 369 114 b 344 57 294 19 245 19 b 192 19 129 47 129 182 b 129 303 192 347 251 347 b 268 347 284 342 297 335 b 297 335 298 335 298 335 b 347 306 381 249 381 182 b 381 158 377 135 369 114 z"},"\\":{"x_min":0,"x_max":488,"ha":488,"o":"m 434 80 b 427 92 389 161 341 249 b 252 412 130 634 112 668 b 104 683 84 686 70 679 b 54 672 46 657 52 640 b 65 602 317 134 383 50 b 391 40 401 35 410 35 b 416 35 421 37 426 40 b 433 45 438 53 438 63 b 438 68 437 74 434 80 z"},"e":{"x_min":0,"x_max":249,"ha":249,"o":"m 273 172 b 266 176 259 173 255 167 b 234 127 213 93 192 68 b 191 67 191 67 191 67 b 191 67 191 67 191 67 b 190 66 190 66 190 65 b 187 62 183 58 180 55 b 166 40 147 27 131 27 b 114 27 101 39 90 62 b 80 85 74 115 74 149 b 128 154 168 191 182 232 b 182 233 182 234 183 235 b 183 235 183 236 183 236 b 183 237 184 238 184 239 b 186 245 187 251 187 258 b 187 258 187 259 187 260 b 187 260 187 261 187 261 b 187 263 188 264 188 266 b 188 285 181 301 170 313 b 157 326 139 333 116 333 b 41 333 0 238 0 148 b 0 106 9 68 25 39 b 45 5 74 -13 109 -13 b 129 -13 161 -4 202 41 b 225 66 251 102 278 155 b 281 161 279 169 273 172 z m 136 292 b 146 292 153 289 157 282 b 161 277 162 271 162 264 b 162 262 162 260 162 257 b 161 249 158 241 155 234 b 154 233 154 231 154 230 b 138 198 104 179 75 175 b 79 235 101 292 136 292 z"},"b":{"x_min":0,"x_max":353,"ha":353,"o":"m 377 171 b 372 175 364 174 359 169 b 332 133 304 128 272 128 b 277 150 280 173 280 195 b 280 233 272 265 257 290 b 239 318 212 333 179 333 b 128 333 91 305 69 250 b 69 270 69 291 69 314 b 109 338 156 395 192 466 b 204 490 214 514 222 537 b 224 541 226 547 227 553 b 241 597 245 635 238 664 b 229 701 202 721 162 721 b 127 721 98 709 75 686 b -4 606 -2 400 1 161 b 1 128 2 98 2 74 b 2 47 3 27 3 20 b 3 0 21 -13 38 -13 b 47 -13 55 -10 61 -5 b 68 1 72 10 72 20 b 72 29 72 55 71 82 b 71 91 71 100 71 108 b 72 137 75 166 80 192 b 80 192 80 192 80 192 b 80 192 80 193 80 193 b 83 206 103 292 154 292 b 172 292 185 284 194 268 b 203 253 208 231 208 204 b 208 180 204 155 198 131 b 178 129 157 124 137 111 b 128 106 120 99 114 93 b 90 68 84 40 90 20 b 96 0 113 -13 134 -13 b 196 -13 242 38 264 103 b 303 101 344 106 380 153 b 384 159 383 167 377 171 z m 131 667 b 142 678 155 684 169 684 b 184 684 194 679 201 669 b 219 643 211 589 202 558 b 201 554 199 549 198 545 b 198 544 198 544 197 544 b 197 543 197 542 197 542 b 189 521 180 499 169 477 b 139 420 102 371 69 345 b 70 471 81 617 131 667 z m 181 82 b 166 48 146 26 130 26 b 122 26 120 30 118 33 b 114 43 118 61 132 75 b 132 75 132 75 132 75 b 137 80 143 85 151 90 b 164 98 177 102 190 104 b 187 97 184 89 181 82 z"},"%":{"x_min":0,"x_max":399,"ha":399,"o":"m 319 713 b 304 719 283 716 273 698 b 257 668 76 103 62 0 b 60 -16 69 -30 84 -34 b 86 -34 88 -34 90 -34 b 96 -34 103 -32 108 -29 b 113 -25 118 -19 120 -11 b 125 3 155 99 193 221 b 252 411 326 646 337 679 b 342 693 334 706 319 713 z m 274 167 b 274 167 274 167 274 167 b 232 167 198 127 198 77 b 198 27 232 -14 274 -14 b 315 -14 349 27 349 77 b 349 127 315 167 274 167 z m 274 12 b 247 15 233 48 233 79 b 233 106 244 138 274 142 b 302 141 324 112 324 77 b 324 41 302 12 274 12 z m 126 536 b 126 536 126 536 126 536 b 167 536 201 577 201 627 b 201 677 167 717 126 717 b 84 717 50 677 50 627 b 50 577 84 536 126 536 z m 126 692 b 154 691 176 662 176 627 b 176 591 154 562 126 562 b 99 565 85 598 85 629 b 85 656 96 688 126 692 z"},"m":{"x_min":0,"x_max":543,"ha":543,"o":"m 565 172 b 558 174 551 171 548 164 b 547 163 546 159 545 155 b 536 128 528 106 521 89 b 521 88 520 88 520 88 b 498 39 486 38 485 38 b 481 38 477 47 475 63 b 471 83 471 112 471 143 b 471 185 471 228 463 262 b 454 306 433 328 401 328 b 350 328 308 283 279 197 b 277 192 276 188 275 184 b 273 178 271 172 269 167 b 264 227 251 285 222 314 b 209 327 194 333 176 333 b 121 333 89 272 70 203 b 70 253 70 296 70 310 b 70 327 55 339 35 339 b 15 339 0 327 0 310 b 0 278 0 188 1 115 b 1 69 1 29 1 20 b 1 -1 19 -13 36 -13 b 55 -13 70 1 70 20 b 70 53 77 128 94 193 b 108 240 130 287 152 287 b 173 287 189 255 198 196 b 206 140 206 74 206 38 b 206 29 210 20 217 14 b 223 10 231 7 239 7 b 259 7 273 21 273 39 b 273 59 281 118 299 176 b 299 176 299 176 299 176 b 329 263 357 282 376 282 b 380 282 382 281 385 278 b 401 262 400 207 400 157 b 400 91 400 29 427 1 b 437 -8 448 -13 462 -13 b 481 -13 509 -2 542 74 b 542 75 543 75 543 75 b 544 78 546 82 547 85 l 547 85 b 554 103 562 123 569 147 b 571 151 572 154 572 156 b 575 162 571 169 565 172 z"},"#":{"x_min":0,"x_max":844,"ha":844,"o":"m 766 491 b 756 492 725 494 681 495 b 710 589 733 662 739 679 b 743 693 736 706 721 713 b 705 719 685 716 675 698 b 669 687 641 603 607 497 b 527 499 429 499 341 499 b 370 590 393 662 399 679 b 403 693 395 706 380 713 b 365 719 344 716 335 698 b 329 687 300 604 266 497 b 211 496 166 494 139 491 b 118 488 109 474 109 462 b 110 449 120 436 142 435 b 153 435 192 435 246 434 b 228 378 210 319 193 263 b 145 262 104 260 80 257 b 59 254 49 240 50 228 b 51 215 61 202 83 201 b 92 201 127 201 175 200 b 148 109 127 32 123 0 b 121 -16 130 -30 145 -34 b 147 -34 149 -34 152 -34 b 158 -34 164 -32 169 -29 b 175 -25 179 -19 182 -11 b 186 2 214 92 248 199 b 268 199 290 199 312 199 b 378 198 450 198 514 197 b 488 107 468 32 464 0 b 462 -16 471 -30 486 -34 b 488 -34 490 -34 492 -34 b 498 -34 504 -32 510 -29 b 515 -25 520 -19 522 -11 b 526 2 554 90 587 196 b 644 196 688 195 704 195 b 704 195 704 195 705 195 b 720 195 732 207 734 223 b 735 237 727 253 706 257 b 696 258 659 260 608 262 b 625 317 643 375 660 430 b 711 430 749 429 763 429 b 764 429 764 429 764 429 b 779 429 792 441 793 457 b 795 471 787 487 766 491 z m 534 263 b 452 265 354 265 268 264 b 286 320 304 379 321 433 b 337 433 354 433 372 433 b 441 432 518 432 586 431 b 568 376 550 318 534 263 z"},",":{"x_min":0,"x_max":196,"ha":196,"o":"m 146 -1 b 145 23 124 42 98 42 b 71 42 50 22 50 -2 b 50 -26 71 -46 98 -46 b 101 -46 103 -46 106 -46 b 103 -59 97 -69 92 -70 b 92 -70 92 -70 92 -70 b 85 -70 79 -76 79 -83 b 79 -90 85 -95 92 -95 b 93 -95 94 -95 95 -95 b 105 -94 114 -88 123 -79 b 140 -59 149 -27 146 -1 z"},"n":{"x_min":0,"x_max":368,"ha":368,"o":"m 388 172 b 382 174 374 171 372 164 b 371 163 370 159 369 155 b 360 128 352 107 345 89 b 322 39 309 38 309 38 b 305 38 301 47 298 63 b 295 83 295 112 295 143 b 295 185 295 228 287 262 b 278 306 257 328 225 328 b 174 328 127 280 89 187 b 88 185 87 183 86 180 b 80 165 75 150 70 135 b 70 153 70 171 70 189 b 70 244 70 295 70 310 b 70 319 66 327 58 332 b 51 337 42 338 37 338 b 16 338 0 326 0 310 b 0 278 0 186 0 114 l 0 18 b 0 -4 17 -15 34 -15 b 54 -15 69 -1 69 18 b 69 36 83 104 109 169 b 109 169 110 170 110 170 b 151 267 184 282 200 282 b 203 282 206 281 209 278 b 224 262 224 207 224 157 b 224 91 223 29 251 1 b 260 -8 272 -13 286 -13 b 305 -13 332 -2 366 74 b 366 75 366 75 366 75 b 368 78 369 82 371 85 l 371 85 b 378 103 385 123 393 147 b 394 151 395 154 396 156 b 398 162 395 169 388 172 z"},"h":{"x_min":0,"x_max":354,"ha":354,"o":"m 376 172 b 369 174 362 171 359 164 b 358 163 357 159 356 155 b 345 121 335 95 326 75 b 325 74 325 73 325 72 b 322 68 320 64 318 60 b 318 59 318 59 318 59 b 312 49 304 38 296 38 b 295 38 294 38 293 39 b 282 51 282 105 283 148 b 283 217 284 288 254 318 b 244 328 232 333 217 333 b 166 333 121 286 86 195 b 84 190 82 185 80 179 b 80 179 80 178 80 178 b 76 168 73 158 70 148 b 70 153 70 158 70 161 b 70 178 70 197 70 220 b 69 247 69 279 69 314 b 109 338 155 395 192 466 b 204 490 214 514 222 537 b 224 541 226 547 227 553 b 241 597 245 635 238 664 b 229 701 202 721 162 721 b 127 721 98 709 75 686 b -4 606 -2 400 1 161 b 1 130 2 100 2 75 b 2 46 3 25 3 17 b 3 -4 21 -16 38 -16 b 47 -16 55 -13 61 -8 b 68 -2 72 7 72 17 b 72 46 83 108 104 168 b 104 169 104 169 104 170 b 122 213 156 287 192 287 b 195 287 197 286 199 284 b 214 269 213 213 212 163 b 211 98 210 30 238 1 b 248 -8 259 -13 273 -13 b 289 -13 311 -5 337 42 l 337 42 b 342 49 346 57 348 63 b 349 65 350 67 351 68 b 351 69 352 70 352 71 b 361 91 370 116 380 147 b 382 151 383 154 383 156 b 386 162 382 169 376 172 z m 131 667 b 142 678 155 684 169 684 b 184 684 194 679 201 669 b 219 643 211 589 202 558 b 201 554 199 549 198 545 b 198 544 198 544 197 544 b 197 543 197 542 197 542 b 189 521 180 499 169 477 b 139 420 102 371 69 345 b 70 471 81 617 131 667 z"},"z":{"x_min":0,"x_max":324,"ha":324,"o":"m 342 174 b 280 174 218 134 163 60 b 158 62 153 64 149 65 b 193 101 227 178 227 240 b 227 267 221 289 208 305 b 193 324 171 333 142 333 b 89 333 53 300 31 258 b 31 257 31 257 30 256 b 26 248 24 243 24 242 b 23 241 23 241 23 241 b 23 241 23 241 23 241 b 12 214 7 185 7 161 b 7 154 13 148 20 148 b 27 148 33 154 33 161 b 33 182 37 208 47 231 b 47 232 47 232 48 233 b 48 235 70 292 127 292 b 141 292 151 287 158 276 b 164 265 168 249 168 229 b 168 155 125 72 102 72 b 95 72 89 67 89 59 b 89 52 95 47 102 47 b 103 47 105 47 106 47 b 120 46 133 42 144 34 b 136 22 128 8 120 -5 b 80 -77 50 -163 38 -236 b 38 -236 38 -236 38 -236 b 37 -237 37 -237 37 -237 b 37 -238 37 -238 37 -238 b 34 -260 32 -281 32 -300 b 32 -329 36 -352 45 -368 b 55 -388 72 -399 93 -399 b 140 -399 183 -367 214 -310 b 242 -259 258 -194 258 -130 b 258 -75 246 -26 223 9 b 212 25 200 38 185 48 b 201 68 218 86 234 101 b 270 132 306 148 342 148 b 349 148 354 154 354 161 b 354 168 349 174 342 174 z m 193 -110 b 193 -167 181 -229 160 -276 b 139 -324 111 -351 84 -351 b 78 -351 74 -349 70 -345 b 52 -325 60 -261 63 -241 b 63 -240 63 -240 63 -240 b 74 -170 104 -88 143 -18 b 149 -6 156 5 163 15 b 165 11 168 7 171 2 b 186 -25 193 -64 193 -110 z"},"B":{"x_min":0,"x_max":640,"ha":640,"o":"m 425 432 b 423 433 422 433 420 434 b 436 445 451 460 463 480 b 486 517 499 565 499 611 b 499 630 495 678 464 719 b 443 747 403 780 332 780 b 248 780 198 729 171 687 b 167 679 163 672 159 665 b 159 664 158 664 158 663 b 158 663 158 662 158 662 b 157 662 157 661 157 661 b 157 661 157 661 157 661 b 138 622 129 583 129 564 b 129 557 135 551 142 551 b 149 551 155 557 155 564 b 155 577 161 612 180 650 b 180 650 180 650 180 651 b 181 651 181 652 182 653 b 183 656 185 659 187 662 b 187 663 188 664 189 665 b 189 667 190 668 190 669 b 192 671 193 673 195 675 b 196 677 197 678 198 680 b 216 705 249 737 305 737 b 391 737 430 691 430 593 b 430 525 397 440 360 440 b 353 440 347 434 347 427 b 347 420 353 414 360 414 b 398 414 439 394 471 360 b 506 323 525 273 525 220 b 525 135 494 62 442 26 b 414 6 381 -2 346 3 b 346 3 346 3 346 3 b 334 5 322 8 310 12 b 306 13 303 13 300 12 b 300 12 300 12 299 11 b 298 11 296 9 295 8 b 295 8 295 7 295 7 b 294 6 294 5 293 4 b 292 2 292 0 293 -2 b 293 -2 293 -3 293 -3 b 293 -4 293 -5 294 -6 b 294 -6 294 -6 294 -7 b 294 -7 295 -7 295 -7 b 295 -8 295 -8 295 -8 b 296 -8 296 -9 296 -9 b 296 -9 297 -9 297 -10 b 298 -11 299 -11 301 -12 b 301 -12 301 -12 301 -12 b 316 -18 331 -21 346 -23 b 346 -23 346 -23 346 -23 b 358 -25 369 -26 380 -26 b 421 -26 458 -14 491 10 b 560 60 590 151 590 221 b 590 330 526 409 425 432 z m 317 690 b 321 694 326 696 332 696 b 339 696 344 702 344 709 b 344 716 339 722 332 722 b 256 722 239 633 233 603 b 221 538 220 449 220 363 b 220 196 219 24 131 24 b 98 24 76 47 76 82 b 76 82 76 82 76 83 b 76 95 80 108 87 119 b 103 142 133 153 172 148 b 179 147 185 152 186 159 b 187 166 182 173 175 174 b 109 181 78 152 66 133 b 56 118 50 101 50 83 b 50 83 50 83 50 82 b 50 82 50 82 50 82 b 50 66 54 50 61 36 b 78 5 109 -13 147 -13 b 177 -13 202 -2 222 18 b 292 88 290 269 289 428 b 288 542 287 660 317 690 z"},"K":{"x_min":0,"x_max":709,"ha":709,"o":"m 732 173 b 726 176 718 173 716 166 l 714 163 b 707 148 694 119 678 91 l 677 90 b 666 72 642 33 612 33 b 561 33 473 164 383 375 b 427 404 450 470 472 534 b 503 626 532 712 615 712 b 631 712 649 724 649 746 b 649 755 646 763 640 769 b 634 776 625 780 615 780 b 501 780 467 660 438 554 b 415 473 396 414 360 393 b 357 391 353 389 349 388 b 362 527 360 666 359 736 b 359 749 358 760 358 767 b 358 784 342 796 320 796 b 311 796 303 794 296 790 b 288 785 283 777 283 767 b 283 755 283 738 283 716 b 287 564 295 159 189 50 b 171 32 152 24 131 24 b 98 24 76 47 76 82 b 76 82 76 83 76 83 b 76 96 80 108 87 119 b 103 142 133 153 172 148 b 179 147 185 152 186 159 b 187 166 182 173 175 174 b 109 181 78 152 66 133 b 56 119 50 101 50 83 b 50 83 50 83 50 82 b 50 82 50 81 50 80 b 50 65 54 50 61 36 b 78 5 109 -13 147 -13 b 181 -13 211 1 238 27 b 294 85 325 198 341 320 b 345 312 349 304 354 295 b 413 172 502 -13 593 -13 b 635 -13 670 27 699 76 b 699 76 699 77 699 77 l 701 79 b 701 80 701 80 701 81 b 702 81 702 81 702 81 b 715 104 727 129 738 153 l 739 156 b 742 162 739 170 732 173 z"},"R":{"x_min":0,"x_max":615,"ha":615,"o":"m 639 173 b 632 176 625 173 622 166 b 620 162 618 156 615 150 b 608 134 599 113 588 92 b 587 90 585 87 584 85 b 572 65 553 33 528 33 b 496 33 477 98 458 161 b 441 221 423 282 389 308 b 416 321 440 341 461 367 b 500 416 522 481 522 552 b 522 577 518 641 486 696 b 454 751 401 780 333 780 b 246 780 194 729 165 687 b 162 682 159 676 155 671 b 154 669 153 667 152 665 b 152 665 152 664 151 664 b 151 664 151 663 151 663 b 151 663 151 663 151 662 b 150 662 150 662 150 661 b 130 623 120 583 120 564 b 120 557 126 551 133 551 b 140 551 146 557 146 564 b 146 577 153 612 173 650 b 173 650 173 650 173 650 b 174 651 174 652 175 653 b 176 655 178 659 180 662 b 182 666 185 670 188 675 b 207 702 242 737 305 737 b 397 737 451 667 451 549 b 451 453 405 321 319 317 b 317 316 316 316 315 316 b 307 316 302 311 302 304 b 302 297 307 291 315 291 b 355 291 377 219 397 150 b 421 70 446 -13 509 -13 b 552 -13 586 33 610 79 b 622 101 631 123 638 140 b 641 146 643 151 645 156 b 648 162 645 170 639 173 z m 308 690 b 312 694 317 696 323 696 b 330 696 336 702 336 709 b 336 716 330 722 323 722 b 322 722 321 722 321 722 b 299 721 281 713 266 699 b 213 645 215 508 216 363 b 218 229 219 89 172 42 b 161 30 148 25 132 25 b 99 25 76 49 76 84 b 76 84 76 84 76 84 b 76 97 79 110 87 120 b 102 143 132 154 171 149 b 178 148 184 153 185 160 b 186 167 181 174 174 175 b 108 182 78 153 66 135 b 56 120 50 103 50 85 b 50 85 50 84 50 84 b 50 84 50 84 50 83 b 50 83 50 82 50 82 b 50 81 50 80 50 79 b 50 76 51 73 51 70 b 53 59 56 48 61 38 b 78 7 109 -12 148 -12 b 178 -12 203 -1 223 20 b 292 90 288 270 284 428 b 282 542 279 660 308 690 z"},"T":{"x_min":0,"x_max":428,"ha":428,"o":"m 655 829 b 648 829 643 823 643 816 b 643 815 643 814 643 813 b 642 803 638 794 631 787 b 596 753 489 757 385 761 b 261 766 132 771 77 718 b 60 701 51 679 50 653 b 50 652 50 651 50 650 b 50 643 56 637 63 637 b 70 637 76 643 76 650 b 76 651 76 651 76 652 b 76 662 80 671 87 677 b 122 712 233 711 340 709 b 464 708 592 706 644 757 b 659 772 667 790 668 812 b 668 813 668 815 668 816 b 668 823 662 829 655 829 z m 402 700 b 402 700 401 700 400 700 b 378 700 360 692 345 677 b 293 624 294 492 296 353 b 297 223 298 88 252 42 b 241 31 228 25 211 25 b 178 25 155 49 155 83 b 155 83 155 84 155 84 b 155 97 159 110 166 120 b 182 143 212 154 250 149 b 257 148 264 153 265 160 b 265 167 260 174 253 175 b 188 182 157 153 145 135 b 135 120 130 103 129 85 b 129 85 129 84 129 84 b 129 84 129 84 129 83 b 129 83 129 82 129 82 b 129 81 129 80 129 79 b 130 65 134 51 140 38 b 157 7 189 -12 227 -12 b 258 -12 283 -1 304 20 b 371 89 367 262 364 415 b 361 525 358 639 387 668 b 391 673 396 675 402 675 b 409 675 415 681 415 688 b 415 695 409 700 402 700 z"},"P":{"x_min":0,"x_max":418,"ha":418,"o":"m 486 693 b 453 750 400 780 333 780 b 246 780 194 729 165 687 b 162 682 159 676 155 671 b 154 669 153 667 152 665 b 152 665 152 664 151 664 b 151 663 151 663 151 662 b 151 662 151 662 150 662 b 130 623 120 583 120 564 b 120 557 126 551 133 551 b 140 551 146 557 146 564 b 146 576 153 612 173 650 b 173 650 173 650 173 650 b 173 651 174 652 175 653 b 176 655 178 659 180 662 b 182 666 185 670 188 675 b 207 701 242 737 305 737 b 354 737 391 719 416 682 b 439 649 451 603 451 549 b 451 461 415 322 320 317 b 318 317 316 316 314 316 b 307 316 302 311 302 304 b 302 297 307 291 314 291 b 316 291 318 291 320 291 b 431 294 522 410 522 552 b 522 570 519 635 486 693 z m 308 690 b 313 694 317 696 323 696 b 330 696 336 702 336 709 b 336 716 330 722 323 722 b 322 722 321 722 321 722 b 299 721 281 713 266 699 b 213 645 215 508 216 363 b 218 229 219 89 172 42 b 161 30 148 25 132 25 b 99 25 76 49 76 83 b 76 83 76 84 76 84 b 76 97 79 110 87 120 b 102 143 132 154 171 149 b 178 148 184 153 185 160 b 186 167 181 174 174 175 b 108 182 78 153 66 135 b 56 120 50 103 50 85 b 50 85 50 85 50 84 b 50 84 50 84 50 83 b 50 83 50 82 50 82 b 50 81 50 80 50 79 b 50 76 51 73 51 70 b 53 59 56 48 61 38 b 78 7 109 -12 148 -12 b 178 -12 203 -1 223 20 b 292 90 288 270 284 428 b 282 542 279 660 308 690 z"},"|":{"x_min":0,"x_max":176,"ha":176,"o":"m 117 694 b 113 711 97 722 78 720 b 62 718 50 706 50 693 b 51 658 53 428 55 244 b 56 185 56 132 57 92 b 57 52 57 25 57 17 b 58 -2 72 -13 86 -14 b 86 -14 87 -14 88 -14 b 103 -14 114 -3 117 12 b 134 114 123 662 117 694 z"},"t":{"x_min":0,"x_max":192,"ha":192,"o":"m 230 554 b 239 563 244 574 244 587 b 244 594 238 600 231 600 b 224 600 218 594 218 587 b 218 581 216 576 212 572 b 192 553 132 549 71 549 b 71 618 71 676 71 709 b 71 726 57 739 37 739 b 16 739 2 726 2 709 b 2 671 2 633 1 593 b 1 579 1 565 1 550 b -86 552 -140 551 -162 530 b -168 524 -171 516 -171 508 b -171 501 -165 495 -158 495 b -151 495 -145 501 -145 508 b -145 509 -145 510 -144 511 b -129 526 -62 526 1 524 b 0 437 0 327 2 161 b 3 118 4 -13 86 -13 b 119 -13 149 20 175 63 b 175 63 175 63 175 63 b 176 64 176 64 176 65 b 191 89 204 116 217 143 b 219 147 221 150 222 154 b 226 160 223 168 217 171 b 210 174 203 171 199 165 b 198 162 196 158 194 154 b 185 135 170 103 152 75 b 152 75 152 74 151 73 b 131 42 120 36 114 36 b 88 36 71 84 71 161 b 71 242 71 373 71 489 b 71 501 71 512 71 523 b 140 523 203 528 230 554 z"},"M":{"x_min":0,"x_max":1008,"ha":1008,"o":"m 1031 173 b 1024 175 1017 172 1014 166 b 1012 161 1010 155 1008 149 b 1002 134 995 115 986 95 b 986 94 985 94 985 93 b 976 74 959 38 946 38 b 944 38 940 38 934 44 b 887 92 866 348 875 746 b 875 755 875 761 875 763 b 875 768 873 777 857 780 b 851 781 844 781 839 781 b 832 781 824 781 817 779 b 794 776 763 738 698 536 b 668 441 640 337 620 263 b 621 378 622 552 623 658 b 623 718 624 758 624 763 b 624 768 621 777 606 780 b 600 781 592 781 587 781 b 580 781 572 781 566 779 b 522 774 489 680 431 502 b 363 296 271 13 147 13 b 108 13 91 35 84 48 b 72 71 73 99 87 119 b 103 142 133 153 172 148 b 179 147 185 152 186 159 b 187 166 182 173 175 174 b 109 181 78 152 66 133 b 47 105 45 67 61 36 b 78 5 109 -13 147 -13 b 211 -13 271 44 329 161 b 378 258 419 384 455 494 b 479 566 501 634 522 683 b 537 719 549 737 557 746 b 557 712 556 644 556 568 b 555 408 554 207 554 161 b 554 140 569 128 585 128 b 594 128 602 132 609 139 b 613 142 617 149 619 158 b 620 163 623 176 628 194 b 646 261 682 399 721 523 b 743 592 763 647 780 686 b 792 714 801 730 808 740 b 808 739 808 739 808 738 b 795 315 820 69 881 6 b 893 -7 907 -13 921 -13 b 956 -13 982 26 1005 77 b 1006 77 1006 77 1006 77 b 1007 80 1009 83 1010 86 l 1011 87 b 1011 88 1011 89 1011 89 b 1018 105 1025 122 1032 139 b 1034 146 1036 151 1038 156 b 1041 163 1037 170 1031 173 z"},"g":{"x_min":0,"x_max":372,"ha":372,"o":"m 394 173 b 388 175 380 172 377 166 b 351 102 314 72 274 49 b 274 86 274 124 273 163 b 273 195 272 225 272 249 b 272 277 271 297 271 305 b 271 325 253 338 236 338 b 227 338 219 335 213 330 b 206 324 202 315 202 305 b 202 303 202 302 202 300 b 184 322 158 333 130 333 b 46 333 0 233 0 139 b 0 99 8 63 24 36 b 42 4 69 -13 102 -13 b 138 -13 171 13 196 60 b 198 64 200 68 202 73 b 202 73 202 73 202 73 b 202 73 203 74 203 74 b 204 76 204 77 205 79 b 205 60 205 39 205 16 b 147 -11 88 -47 50 -150 b 16 -240 30 -323 59 -365 b 73 -386 92 -398 112 -398 b 147 -398 176 -386 200 -362 b 262 -299 273 -156 274 20 b 322 45 368 79 401 156 b 404 163 401 170 394 173 z m 204 188 b 203 156 194 116 178 82 b 169 65 148 27 117 27 b 91 27 71 75 71 140 b 71 179 78 218 92 246 b 102 267 119 292 148 292 b 168 292 197 273 202 239 b 202 238 203 236 203 235 b 203 234 203 233 203 232 b 203 232 203 231 203 231 b 203 230 203 229 203 228 b 203 228 203 228 203 228 b 203 214 203 200 204 189 b 204 189 204 188 204 188 z m 144 -343 b 132 -355 119 -360 105 -360 b 96 -360 88 -356 81 -348 b 63 -329 54 -290 56 -244 b 58 -214 64 -184 74 -159 b 107 -71 154 -37 205 -12 b 204 -140 194 -292 144 -343 z"},"j":{"x_min":0,"x_max":174,"ha":174,"o":"m 196 173 b 190 175 182 172 179 166 b 153 102 116 72 76 49 b 76 86 76 124 75 163 b 75 194 74 224 74 249 b 74 278 73 298 73 305 b 73 326 55 339 38 339 b 29 339 21 336 15 331 b 8 324 4 316 4 305 b 4 297 5 270 5 242 b 5 211 6 175 6 163 b 6 146 6 126 7 104 b 7 78 7 48 7 16 b -51 -11 -109 -47 -148 -150 b -182 -240 -168 -323 -139 -365 b -125 -386 -106 -398 -86 -398 b -51 -398 -22 -386 2 -362 b 64 -299 75 -156 76 20 b 124 45 170 79 203 156 b 206 163 203 170 196 173 z m -54 -343 b -66 -355 -79 -360 -93 -360 b -102 -360 -110 -356 -117 -348 b -134 -329 -144 -290 -142 -245 b -140 -214 -134 -184 -124 -159 b -91 -71 -44 -37 7 -12 b 6 -140 -4 -292 -54 -343 z m 34 359 b 59 359 80 379 80 405 b 80 430 59 451 34 451 b 8 451 -13 430 -13 405 b -13 379 8 359 34 359 z"},"i":{"x_min":0,"x_max":159,"ha":159,"o":"m 179 173 b 173 175 165 172 163 165 b 163 164 162 162 162 160 b 151 126 141 100 132 80 b 131 79 130 77 129 75 b 125 65 112 38 100 38 b 99 38 99 38 97 40 b 72 66 78 224 80 275 b 80 289 81 299 81 305 b 81 325 67 338 47 339 b 23 339 9 322 8 306 b 8 301 8 295 7 288 b 2 178 1 46 42 3 b 52 -8 63 -13 76 -13 b 115 -13 151 41 186 152 b 187 154 187 156 187 157 b 190 164 186 171 179 173 z m 46 359 b 72 359 92 379 92 405 b 92 430 72 451 46 451 b 21 451 0 430 0 405 b 0 379 21 359 46 359 z"},"y":{"x_min":0,"x_max":378,"ha":378,"o":"m 400 173 b 394 175 386 172 383 166 b 357 102 320 72 280 49 b 280 86 280 124 279 163 b 279 195 278 225 278 250 b 278 277 277 297 277 304 b 277 325 259 338 242 338 b 233 338 225 335 219 330 b 215 326 212 321 210 316 b 210 315 210 315 210 315 b 209 313 209 311 208 309 b 208 306 207 304 207 301 b 201 268 189 203 170 143 b 147 72 122 40 108 40 b 106 40 102 41 98 46 b 84 60 64 111 77 293 b 77 297 78 300 78 302 b 78 314 73 325 64 331 b 53 338 37 338 24 332 b 13 326 6 316 5 303 b 5 298 5 289 4 280 b -1 207 -10 55 37 5 b 48 -7 62 -13 77 -13 b 146 -13 186 93 210 188 b 210 177 210 168 210 163 b 210 146 210 126 210 104 b 211 78 211 48 211 16 b 153 -11 95 -47 56 -150 b 22 -240 36 -323 65 -365 b 79 -386 98 -398 118 -398 b 153 -398 182 -386 206 -362 b 268 -299 279 -156 280 20 b 328 45 374 79 407 156 b 410 163 407 170 400 173 z m 150 -343 b 138 -355 125 -360 111 -360 b 102 -360 94 -356 87 -348 b 70 -329 60 -290 62 -245 b 64 -214 70 -184 80 -159 b 113 -71 160 -37 211 -12 b 210 -140 200 -292 150 -343 z"},"@":{"x_min":0,"x_max":741,"ha":741,"o":"m 617 627 b 580 669 513 719 405 719 b 308 719 221 689 158 634 b 87 572 50 482 50 373 b 50 258 94 171 180 115 b 265 60 372 48 446 48 b 453 48 459 54 459 61 b 459 68 453 74 446 74 b 446 74 446 74 446 74 b 360 74 277 97 217 138 b 143 188 106 262 106 355 b 106 575 270 674 387 674 b 479 674 550 644 598 585 b 637 536 652 477 652 438 b 652 257 571 183 538 183 b 523 183 512 189 503 200 b 456 260 491 454 506 517 b 508 525 506 532 499 538 b 490 548 471 551 456 547 b 444 543 436 534 433 522 l 433 521 b 433 520 433 520 433 520 b 431 516 429 511 427 505 b 422 491 414 472 405 450 b 402 460 398 471 392 482 b 392 482 392 482 392 482 b 390 485 388 488 386 491 b 371 514 348 533 311 533 b 275 533 243 512 221 475 b 202 444 192 404 192 363 b 192 291 223 245 272 245 b 312 245 348 285 378 335 b 391 357 403 381 414 404 b 413 395 412 387 411 379 b 405 289 417 225 447 188 b 466 163 493 151 527 151 b 625 151 691 295 691 430 b 691 503 664 575 617 627 z m 357 349 b 357 349 356 349 356 349 b 318 287 296 282 290 282 b 288 282 281 282 275 296 b 270 308 267 324 267 344 b 267 379 275 419 288 449 b 302 480 319 497 336 497 b 345 497 356 488 364 478 b 375 462 382 441 388 420 b 389 418 389 416 390 414 b 380 392 369 369 357 349 z"},".":{"x_min":0,"x_max":196,"ha":196,"o":"m 98 42 b 71 42 50 22 50 -2 b 50 -26 71 -46 98 -46 b 124 -46 146 -26 146 -2 b 146 22 124 42 98 42 z"},"p":{"x_min":0,"x_max":366,"ha":366,"o":"m 391 171 b 385 175 377 174 373 169 b 343 128 313 118 282 117 b 288 141 291 166 291 190 b 291 229 283 263 267 288 b 248 318 220 333 185 333 b 137 333 101 308 77 257 b 77 257 77 257 77 256 b 77 256 77 256 77 256 b 77 256 77 255 77 255 b 77 255 77 255 77 255 b 74 250 72 244 70 239 b 70 278 70 304 70 310 b 70 319 66 327 58 332 b 51 337 42 338 37 338 b 16 338 0 326 0 310 b 0 278 0 38 0 -151 l 0 -387 b 0 -409 17 -420 34 -420 b 54 -420 69 -406 69 -387 b 69 -361 69 -180 70 -12 b 70 -10 70 -9 70 -8 l 70 1 b 70 59 70 138 86 202 b 90 218 95 232 100 245 l 100 245 b 115 276 135 292 159 292 b 178 292 193 283 203 266 b 213 249 218 224 218 195 b 218 170 214 145 208 121 b 189 122 169 120 149 112 b 126 103 110 89 101 74 b 100 74 100 73 100 73 b 97 68 94 63 92 57 b 92 57 92 57 92 56 b 88 43 87 30 89 18 b 94 -8 114 -26 138 -26 b 183 -26 223 -1 252 46 b 261 60 268 76 274 92 b 313 91 354 100 393 153 b 397 159 396 167 391 171 z m 134 13 b 126 13 121 16 118 22 b 114 29 114 38 116 46 b 116 46 116 46 116 46 b 117 51 120 56 123 61 b 123 61 123 61 123 61 b 130 72 142 81 158 88 b 172 93 187 95 201 96 b 185 48 159 13 134 13 z"},"X":{"x_min":0,"x_max":705,"ha":705,"o":"m 729 172 b 723 176 715 173 712 167 b 709 162 706 155 703 149 b 688 122 670 87 649 62 b 634 45 618 33 601 33 b 525 33 461 219 406 388 b 406 389 407 391 407 392 b 452 483 498 577 537 646 b 593 744 616 754 623 754 b 630 754 636 760 636 767 b 636 774 630 780 623 780 b 572 780 502 645 394 423 b 333 609 273 780 182 780 b 157 780 134 767 114 741 b 99 721 86 695 77 668 b 77 668 77 668 77 667 b 72 657 70 648 69 643 b 69 643 69 642 69 642 b 52 584 47 525 52 508 b 53 501 60 497 67 499 b 74 500 78 508 76 514 b 73 528 79 596 100 656 b 100 656 100 656 100 656 b 111 685 136 731 168 731 b 217 731 271 565 319 418 b 329 389 339 359 349 330 b 313 257 278 187 245 132 b 186 28 158 13 148 13 b 141 13 135 7 135 0 b 135 -7 141 -13 148 -13 b 198 -13 264 102 360 296 b 418 130 482 -13 571 -13 b 616 -13 659 35 667 45 b 668 45 668 46 669 46 b 669 46 669 46 669 46 b 691 72 710 108 725 137 b 728 143 732 149 735 155 b 738 161 736 169 729 172 z"},"*":{"x_min":0,"x_max":784,"ha":784,"o":"m 706 491 b 689 494 596 497 485 498 b 568 582 643 658 660 674 b 670 684 670 699 660 711 b 650 724 630 730 612 718 b 595 706 499 612 398 509 b 322 598 246 682 210 713 b 194 727 175 724 165 714 b 161 709 158 703 158 696 b 158 689 160 682 166 675 l 189 648 b 217 615 263 560 314 499 b 214 498 122 496 80 491 b 58 488 49 474 50 462 b 51 449 61 436 83 435 b 100 435 198 434 312 433 b 316 433 320 433 324 433 b 244 350 173 272 149 240 b 138 225 143 209 152 202 b 157 197 164 195 171 195 b 175 195 180 195 184 197 b 188 199 192 201 196 205 b 208 217 283 293 370 381 b 378 389 385 397 393 405 b 470 314 541 230 557 210 b 563 203 571 200 579 200 b 587 200 596 203 602 208 b 616 217 620 233 611 247 b 603 261 539 341 463 432 b 576 430 678 429 704 429 b 704 429 704 429 705 429 b 720 429 732 441 734 457 b 735 471 727 487 706 491 z"},"Y":{"x_min":0,"x_max":707,"ha":707,"o":"m 656 374 b 656 443 655 675 655 689 b 655 709 636 722 619 722 b 610 722 602 719 596 714 b 592 710 589 705 587 700 b 587 699 587 699 587 699 b 586 696 586 693 585 691 b 585 691 585 691 585 690 b 559 527 499 288 433 216 b 433 215 432 215 432 214 b 429 212 427 209 424 206 b 424 206 424 206 424 206 b 414 198 405 194 395 194 b 340 194 338 328 336 457 b 334 616 332 780 233 780 b 180 780 133 712 104 656 b 102 653 101 650 99 647 b 71 591 50 530 50 511 b 50 504 56 498 63 498 b 70 498 76 504 76 511 b 76 522 93 578 122 635 l 123 638 b 156 699 186 731 214 731 b 260 731 261 596 263 477 b 265 316 267 148 363 148 b 400 148 430 176 447 193 b 447 193 447 193 447 193 b 448 194 449 195 450 196 b 450 196 450 196 450 196 b 484 232 516 301 547 405 b 563 458 576 512 586 559 b 586 556 586 552 586 549 b 587 469 587 387 587 374 b 587 357 587 338 588 315 b 590 183 594 -63 527 -131 b 515 -143 503 -149 488 -149 b 479 -149 472 -145 464 -137 b 447 -117 438 -78 439 -33 b 441 -3 447 28 457 53 b 459 59 456 67 449 69 b 443 72 435 69 433 62 b 399 -29 413 -112 442 -154 b 456 -175 475 -186 495 -186 b 530 -186 560 -174 583 -151 b 661 -71 659 135 656 374 z"},"c":{"x_min":0,"x_max":250,"ha":250,"o":"m 272 172 b 266 176 258 173 255 167 b 234 127 213 93 192 68 b 192 68 192 68 192 68 b 191 67 191 67 191 67 b 190 66 189 65 189 64 b 188 63 187 62 186 61 b 186 60 185 60 184 59 b 183 58 182 57 181 56 b 166 40 148 27 131 27 b 114 27 101 39 90 62 b 80 86 74 118 74 153 b 74 221 97 292 136 292 b 156 292 163 261 164 248 b 164 247 165 247 165 247 b 165 247 165 246 165 246 b 166 238 166 231 166 225 b 165 218 171 212 178 212 b 185 211 191 217 191 224 b 191 230 191 239 190 250 b 190 250 190 250 190 251 b 189 258 187 265 186 271 b 186 272 185 272 185 273 b 181 287 174 302 164 313 b 151 327 135 333 116 333 b 41 333 0 238 0 148 b 0 106 9 68 25 39 b 45 5 74 -13 109 -13 b 128 -13 159 -4 198 37 b 222 62 249 99 278 155 b 281 161 279 169 272 172 z"},"!":{"x_min":0,"x_max":196,"ha":196,"o":"m 100 57 b 101 57 101 57 102 57 b 115 58 130 69 130 88 b 131 105 132 200 133 309 b 135 461 137 650 138 685 b 139 700 126 712 108 714 b 89 717 73 706 69 688 b 60 650 52 192 69 85 b 72 66 86 57 100 57 z m 98 -46 b 124 -46 146 -26 146 -2 b 146 22 124 42 98 42 b 71 42 50 22 50 -2 b 50 -26 71 -46 98 -46 z"},"/":{"x_min":0,"x_max":377,"ha":377,"o":"m 307 713 b 292 719 272 716 262 698 b 246 668 64 103 50 0 b 48 -16 57 -30 72 -34 b 74 -34 76 -34 79 -34 b 85 -34 91 -32 96 -29 b 102 -25 106 -19 109 -11 b 113 3 143 99 182 221 b 241 411 315 646 326 679 b 330 693 322 706 307 713 z"},"[":{"x_min":0,"x_max":323,"ha":323,"o":"m 260 12 l 118 12 b 118 14 119 15 119 17 b 119 32 120 125 121 244 b 123 428 125 658 126 693 b 126 693 126 693 126 694 b 136 694 148 694 160 694 b 202 694 250 693 260 693 b 267 693 273 699 273 706 b 273 713 267 719 260 719 b 250 719 202 719 160 719 b 136 719 113 720 99 720 b 99 720 98 720 98 720 b 93 720 89 720 85 719 b 85 719 85 719 85 719 b 72 717 62 707 59 694 b 53 662 42 114 59 12 b 62 -3 73 -13 87 -14 b 87 -14 88 -14 88 -14 l 260 -14 b 267 -14 273 -8 273 -1 b 273 6 267 12 260 12 z"},"6":{"x_min":0,"x_max":437,"ha":437,"o":"m 385 316 b 385 316 385 316 385 317 b 385 317 385 317 385 318 b 377 340 350 388 306 413 b 306 413 306 413 306 413 b 283 427 256 435 228 435 b 214 435 201 433 187 429 b 221 501 261 576 287 624 b 303 653 314 674 319 685 b 325 698 319 713 304 721 b 289 730 268 729 256 712 b 233 680 110 420 72 318 b 71 318 71 317 71 316 b 58 284 50 248 50 210 b 50 86 130 -15 228 -15 b 301 -15 364 41 392 120 b 392 121 392 122 393 123 b 393 123 393 124 393 124 b 402 151 407 180 407 210 b 407 249 399 285 385 316 z m 368 131 b 343 64 294 20 245 20 b 207 20 178 38 158 73 b 139 107 129 154 129 210 b 129 221 129 231 130 241 b 137 344 180 402 251 402 b 269 402 284 396 298 388 b 298 388 298 388 298 388 b 324 370 346 343 361 309 b 361 308 361 308 362 308 b 374 279 381 245 381 210 b 381 182 377 155 368 131 z"},"r":{"x_min":0,"x_max":292,"ha":292,"o":"m 312 172 b 306 174 298 171 296 164 b 295 163 294 159 293 155 b 282 121 272 95 263 75 b 262 75 262 74 262 74 b 260 69 257 64 255 60 b 249 50 241 38 233 38 b 233 38 232 38 231 39 b 205 66 211 227 213 280 b 214 293 214 303 214 309 b 214 320 209 328 201 333 b 193 338 184 339 178 339 b 178 339 177 339 177 339 b 175 339 174 339 172 339 b 167 338 161 337 156 335 b 114 324 82 325 59 330 b 59 337 58 344 58 350 b 58 351 58 351 58 352 l 58 353 b 57 357 57 362 56 367 b 53 383 48 397 40 407 b 30 419 17 426 0 426 b -15 426 -28 418 -35 403 b -44 384 -40 358 -25 339 b -15 327 2 313 32 305 b 29 267 21 220 7 167 l 7 164 b 5 157 9 150 16 149 b 17 148 18 148 19 148 b 25 148 30 152 31 158 l 32 160 b 42 198 54 251 58 300 b 80 298 108 299 141 305 b 141 299 141 291 141 283 b 136 161 137 43 176 2 b 186 -8 197 -13 210 -13 b 226 -13 248 -5 274 42 b 279 49 282 57 285 63 b 286 65 287 67 288 68 b 288 69 289 70 289 71 b 298 91 307 116 317 147 b 318 151 319 154 320 156 b 322 162 319 169 312 172 z"},"2":{"x_min":0,"x_max":498,"ha":498,"o":"m 461 49 b 431 64 371 65 306 60 b 306 60 306 60 306 60 b 306 60 306 60 305 60 b 303 60 302 60 300 60 b 237 55 170 45 122 38 b 136 62 166 104 194 141 b 307 298 478 535 419 652 b 396 696 344 718 262 718 b 90 718 50 580 50 531 b 50 531 50 531 50 531 b 50 527 51 524 54 521 b 54 521 54 521 55 520 b 55 520 55 520 56 520 b 56 519 56 519 57 519 b 57 519 57 519 58 519 b 58 518 58 518 59 518 b 59 518 59 518 60 518 b 60 518 60 518 60 518 b 60 518 61 518 61 518 b 62 518 62 518 62 518 b 63 518 63 518 63 518 b 65 518 66 518 68 519 b 68 519 69 519 70 520 b 70 520 71 520 71 520 b 72 522 73 523 74 525 b 74 525 74 525 75 525 b 75 526 75 526 75 527 l 75 527 b 75 527 75 527 75 528 b 75 528 75 529 76 529 b 76 529 76 529 76 529 b 76 529 76 530 76 530 b 78 617 166 682 242 682 b 302 682 340 668 355 640 b 396 563 278 385 183 242 b 117 142 59 56 58 9 b 58 5 60 0 63 -3 b 67 -6 71 -7 78 -7 b 89 -7 108 -3 143 6 b 187 16 247 30 303 35 b 305 35 306 35 307 35 b 368 39 424 39 450 26 b 456 23 464 26 467 32 b 470 38 467 46 461 49 z"},"{":{"x_min":0,"x_max":264,"ha":264,"o":"m 201 17 b 197 17 194 19 192 21 b 178 35 178 86 179 134 b 181 210 182 295 138 340 b 132 346 125 351 118 355 b 125 360 132 365 138 371 b 182 416 181 501 179 577 b 178 625 178 675 192 690 b 194 692 197 693 201 693 b 208 693 214 699 214 706 b 214 713 208 719 201 719 b 201 719 200 719 199 719 b 176 718 158 711 144 697 b 108 661 109 588 110 518 b 110 460 111 400 89 378 b 83 372 76 369 67 368 b 67 368 67 368 67 368 b 65 368 64 368 63 368 b 56 368 51 363 50 357 b 50 356 50 356 50 356 b 50 355 50 355 50 354 b 51 348 56 342 63 342 b 64 342 65 342 67 343 b 67 343 67 343 67 343 b 76 342 83 339 89 333 b 111 311 110 251 110 192 b 109 122 108 50 144 14 b 158 0 176 -8 199 -8 b 200 -8 201 -8 201 -8 b 208 -8 214 -2 214 5 b 214 12 208 17 201 17 z"},"9":{"x_min":0,"x_max":437,"ha":437,"o":"m 228 727 b 155 727 92 671 65 591 b 64 591 64 590 64 589 b 64 589 64 588 63 587 b 55 561 50 532 50 502 b 50 463 58 427 71 395 b 71 395 71 395 71 395 b 71 395 71 395 71 394 b 80 372 106 323 151 299 b 174 284 200 276 228 276 b 240 276 251 278 261 280 b 233 220 201 155 177 106 b 158 69 144 40 138 26 b 132 14 138 -1 152 -10 b 158 -13 166 -15 173 -15 b 183 -15 194 -11 201 0 b 223 32 346 292 385 393 b 385 394 386 395 386 396 b 399 427 407 463 407 502 b 407 626 327 727 228 727 z m 313 395 b 293 348 257 310 205 310 b 188 310 173 315 159 323 b 159 324 159 324 159 324 b 132 342 110 370 95 404 b 83 433 76 466 76 502 b 76 530 80 556 88 581 b 113 647 163 692 211 692 b 323 692 335 559 335 502 b 335 468 328 429 313 395 z"}," ":{"x_min":0,"x_max":245,"ha":245,"o":""},"I":{"x_min":0,"x_max":340,"ha":340,"o":"m 332 781 b 256 781 239 685 233 653 b 221 581 220 485 220 392 b 220 210 219 22 131 22 b 98 22 76 46 76 80 b 76 81 76 81 76 81 b 76 94 80 106 87 117 b 103 141 133 151 172 147 b 179 146 185 151 186 158 b 187 165 182 171 175 172 b 109 179 78 150 66 132 b 56 117 50 99 50 81 b 50 81 50 81 50 81 b 50 80 50 80 50 80 b 50 65 54 49 61 35 b 78 3 109 -14 147 -14 b 175 -14 200 -4 219 16 b 292 89 291 287 289 463 b 288 588 287 718 318 749 b 322 753 326 755 332 755 b 339 755 344 761 344 768 b 344 775 339 781 332 781 z"},"H":{"x_min":0,"x_max":771,"ha":771,"o":"m 794 173 b 788 175 780 172 778 166 b 776 161 773 155 771 149 b 765 135 757 116 749 97 b 748 96 748 96 748 95 b 739 76 720 38 707 38 b 704 38 700 39 695 44 b 676 64 650 139 650 394 b 660 394 669 393 676 393 b 682 393 687 393 689 393 b 696 393 702 399 702 406 b 702 413 696 419 689 419 b 687 419 682 419 676 419 b 669 419 660 419 650 419 b 650 505 653 610 661 739 b 661 752 662 760 662 763 b 662 779 648 790 628 790 b 609 791 595 781 595 767 b 595 767 595 767 595 767 b 595 762 594 748 593 730 b 586 612 582 508 581 419 b 518 419 437 417 359 410 b 347 409 335 408 323 407 b 330 522 329 636 329 715 b 328 735 328 752 328 767 b 328 783 313 795 293 795 b 287 795 279 794 271 789 b 264 784 259 776 259 767 b 259 757 259 743 260 725 b 261 658 263 528 255 398 b 151 380 101 353 101 313 b 101 306 106 301 113 300 b 113 300 113 300 114 300 b 120 300 126 306 126 313 b 127 325 141 352 253 371 b 243 230 220 93 170 43 b 158 30 144 24 129 24 b 114 24 100 29 91 39 b 81 49 75 64 76 82 b 76 82 76 83 76 83 b 76 95 80 108 87 118 b 104 142 134 153 174 148 b 181 147 187 152 188 159 b 189 166 183 173 176 174 b 110 181 79 151 66 133 b 56 118 51 101 50 83 b 50 83 50 83 50 83 b 50 82 50 82 50 82 b 50 66 53 50 61 35 b 77 5 108 -13 145 -13 b 174 -13 199 -2 221 21 b 283 83 310 230 321 381 b 334 382 347 383 361 385 b 438 391 519 393 581 394 b 581 177 601 49 642 6 b 654 -7 667 -13 682 -13 b 715 -13 742 25 766 74 b 767 75 767 76 768 77 b 769 80 770 83 772 86 l 772 87 b 773 88 773 88 773 89 b 780 105 788 122 794 139 b 797 145 799 151 801 156 b 804 163 801 170 794 173 z"},"4":{"x_min":0,"x_max":421,"ha":421,"o":"m 353 715 b 345 715 337 713 332 709 b 325 703 321 695 321 686 l 321 333 b 309 333 287 333 260 332 b 222 331 164 329 122 329 b 136 359 164 422 203 506 b 240 589 283 683 286 689 b 289 694 289 701 286 707 b 280 716 264 723 250 723 b 239 722 230 717 226 708 b 216 687 172 593 131 506 b 50 330 50 325 50 321 b 50 317 52 314 54 311 b 58 307 66 304 101 304 b 101 304 102 304 102 304 b 107 304 113 304 119 304 b 149 304 194 305 261 306 b 287 307 309 308 321 308 l 321 0 b 321 -10 325 -18 333 -24 b 339 -28 346 -31 355 -31 b 375 -31 391 -17 391 1 l 391 686 b 391 704 371 715 353 715 z"},"~":{"x_min":0,"x_max":761,"ha":761,"o":"m 700 299 b 652 363 515 329 369 294 b 257 267 142 239 97 267 b 88 273 82 282 80 294 b 79 300 77 310 68 312 b 63 313 57 312 54 307 b 51 304 50 298 50 291 b 50 279 53 265 57 256 b 77 215 121 200 180 200 b 248 200 334 220 419 240 b 538 267 661 295 678 250 b 682 240 689 238 693 238 b 699 237 704 241 708 247 b 713 257 714 281 700 299 z"},"D":{"x_min":0,"x_max":595,"ha":595,"o":"m 505 664 b 458 739 393 780 322 780 b 239 780 189 729 162 687 b 159 682 156 676 153 671 b 153 671 153 670 152 669 b 151 668 151 666 150 665 b 149 664 149 663 148 662 b 148 662 148 662 148 662 b 129 623 120 583 120 564 b 120 557 126 551 133 551 b 140 551 145 557 145 564 b 145 577 152 612 171 650 b 171 650 171 650 171 650 b 171 651 172 652 173 653 b 174 655 175 658 177 661 b 178 663 179 664 179 665 b 181 669 183 672 185 675 b 186 677 188 678 189 680 b 207 706 240 737 296 737 b 359 737 408 709 444 654 b 483 596 503 507 503 397 b 503 315 483 219 449 147 b 400 39 341 14 300 13 b 298 13 297 13 296 13 b 289 13 283 7 283 0 b 283 -7 289 -13 296 -13 b 297 -13 298 -13 299 -13 b 382 -12 452 35 502 122 b 547 199 572 301 572 410 b 572 503 547 596 505 664 z m 284 424 b 281 540 278 660 308 690 b 312 694 317 696 322 696 b 330 696 335 702 335 709 b 335 716 330 722 322 722 b 322 722 321 722 320 722 b 299 721 281 713 266 699 b 213 645 214 506 215 358 b 217 221 218 79 171 31 b 160 20 147 15 131 15 b 98 15 76 38 76 73 b 76 73 76 73 76 73 b 76 86 80 99 87 110 b 103 133 133 144 172 139 b 179 138 185 143 186 150 b 187 157 182 164 175 165 b 109 172 78 142 66 124 b 56 109 50 92 50 74 b 50 74 50 73 50 73 b 50 73 50 73 50 73 b 50 57 54 41 61 27 b 78 -4 109 -22 147 -22 b 176 -22 202 -12 222 9 b 291 80 287 263 284 424 z"},"^":{"x_min":0,"x_max":618,"ha":618,"o":"m 565 316 b 550 344 496 440 443 532 b 421 572 399 610 382 640 b 365 671 352 693 348 701 b 340 717 327 721 317 717 b 310 716 303 713 297 706 b 227 634 72 359 54 323 b 44 303 53 284 67 276 b 71 274 76 272 80 272 b 88 272 95 276 100 283 b 117 309 179 410 238 507 b 262 546 285 585 303 615 b 308 623 313 631 317 637 b 371 518 498 306 516 281 b 523 272 531 269 538 269 b 543 269 548 270 552 273 b 565 281 573 300 565 316 z"},"0":{"x_min":0,"x_max":547,"ha":547,"o":"m 488 529 b 477 564 445 636 393 677 b 393 677 393 677 393 677 b 360 704 322 719 283 719 b 220 719 161 680 117 609 b 74 540 50 449 50 352 b 50 255 74 164 117 95 b 161 24 220 -15 283 -15 b 347 -15 406 24 450 95 b 471 128 487 167 499 210 b 510 254 517 302 517 352 b 517 415 507 475 488 529 z m 474 218 b 474 218 474 218 474 218 b 474 218 474 217 474 217 b 440 103 372 26 306 26 b 239 26 198 75 176 117 b 144 176 127 259 127 355 b 127 543 206 680 314 680 b 336 680 357 672 377 657 b 377 656 378 656 378 656 b 414 626 443 579 463 523 b 463 522 464 521 464 520 b 464 519 464 519 465 518 b 482 469 491 412 491 352 b 491 304 485 259 474 218 z"},"F":{"x_min":0,"x_max":348,"ha":348,"o":"m 369 457 l 289 457 b 288 561 289 662 317 690 b 321 694 326 696 332 696 b 339 696 344 702 344 709 b 344 716 339 722 332 722 b 256 722 239 633 233 603 b 225 562 222 510 221 457 l 146 457 b 139 457 133 451 133 444 b 133 437 139 431 146 431 l 221 431 b 220 408 220 386 220 363 b 220 196 219 24 131 24 b 98 24 76 47 76 82 b 76 82 76 82 76 83 b 76 95 80 108 87 119 b 103 142 133 153 172 148 b 179 147 185 152 186 159 b 187 166 182 173 175 174 b 109 181 78 152 66 133 b 56 119 51 101 50 84 b 50 84 50 84 50 84 b 50 83 50 83 50 82 b 50 82 50 82 50 81 b 50 81 50 81 50 80 b 50 79 50 79 50 78 b 50 76 50 75 50 73 b 50 72 51 71 51 69 b 51 69 51 69 51 69 b 52 58 56 47 61 36 b 78 5 109 -13 147 -13 b 177 -13 202 -2 222 18 b 292 88 291 269 289 428 b 289 429 289 430 289 431 l 369 431 b 376 431 381 437 381 444 b 381 451 376 457 369 457 z m 603 816 b 596 816 590 810 590 803 b 590 802 590 802 590 801 b 590 796 588 793 585 790 b 563 770 487 774 412 778 b 298 784 169 790 107 732 b 84 709 72 679 72 641 b 72 634 78 629 85 629 b 92 629 97 634 97 641 b 97 643 97 644 98 645 b 98 664 105 679 117 691 b 161 735 277 733 380 732 b 479 731 565 730 600 764 b 610 774 615 786 616 801 b 616 801 616 802 616 803 b 616 810 610 816 603 816 z"},"`":{"x_min":0,"x_max":204,"ha":204,"o":"m 122 721 b 118 724 112 725 108 723 b 100 720 90 715 81 711 b 72 707 64 703 58 700 b 54 699 52 696 50 692 b 49 688 50 684 52 681 b 54 678 73 651 92 627 b 115 596 127 585 136 585 b 139 585 141 586 143 587 b 149 589 153 595 154 605 b 156 628 138 710 122 721 z"},"k":{"x_min":0,"x_max":313,"ha":313,"o":"m 334 173 b 328 175 320 172 318 165 l 317 163 b 303 125 289 97 278 75 b 269 60 252 34 234 34 b 211 34 170 101 146 155 b 173 163 199 177 220 196 b 250 222 268 256 268 285 b 268 299 264 311 255 320 b 249 326 237 333 217 333 b 169 333 126 291 92 211 b 92 211 92 211 92 211 b 92 211 92 211 92 211 b 90 207 88 202 86 197 b 80 181 75 165 70 150 b 70 154 70 158 70 161 b 70 178 70 197 70 220 b 69 247 69 279 69 314 b 109 338 155 395 192 466 b 204 490 214 514 222 537 b 224 541 226 547 227 553 b 241 597 245 635 238 664 b 229 701 202 721 162 721 b 127 721 98 709 75 686 b -4 606 -2 400 1 161 b 1 128 2 98 2 74 b 2 47 3 27 3 20 b 3 3 15 -16 37 -16 b 60 -16 72 3 72 20 b 72 42 78 84 91 129 b 120 59 163 -13 216 -13 b 249 -13 277 21 300 63 b 300 63 300 63 301 63 b 301 64 301 65 302 65 b 302 66 302 66 302 67 b 317 95 330 126 341 154 l 342 156 b 344 163 341 170 334 173 z m 131 667 b 142 678 155 684 169 684 b 184 684 194 679 201 669 b 219 643 211 589 202 558 b 201 554 199 549 198 545 b 198 544 198 544 197 544 b 197 543 197 542 197 542 b 189 521 180 499 169 477 b 139 420 102 371 69 345 b 70 471 81 617 131 667 z m 115 200 b 115 201 116 201 116 201 b 135 245 166 292 199 292 b 203 292 205 291 206 290 b 207 290 207 288 207 286 b 207 257 150 188 106 176 b 109 184 112 192 115 200 z"},"u":{"x_min":0,"x_max":359,"ha":359,"o":"m 380 173 b 373 175 366 172 364 165 b 364 164 363 162 362 160 b 352 126 342 100 333 80 b 332 79 331 77 330 75 b 325 65 313 38 300 38 b 299 38 297 38 295 41 b 275 62 270 144 280 285 b 281 293 281 299 281 302 b 282 321 269 335 249 337 b 231 337 211 326 209 305 l 208 296 b 201 260 189 197 171 140 b 171 139 171 139 171 139 l 170 139 b 146 66 122 40 108 40 b 106 40 102 41 98 46 b 85 60 64 111 77 293 b 77 297 78 300 78 302 b 78 314 73 325 64 331 b 53 338 37 338 24 332 b 13 326 6 316 5 303 b 5 298 5 290 4 280 b -1 207 -10 55 37 5 b 48 -7 62 -13 77 -13 b 130 -13 165 45 191 121 b 192 124 193 127 195 130 l 195 131 b 195 132 195 133 195 133 b 198 143 201 153 204 163 b 205 94 214 32 240 4 b 251 -7 263 -13 277 -13 b 316 -13 352 41 387 152 b 387 154 388 156 388 157 b 390 164 387 171 380 173 z"},"]":{"x_min":0,"x_max":323,"ha":323,"o":"m 263 694 b 261 708 251 717 237 719 b 233 720 229 720 225 720 b 224 720 224 720 223 720 b 210 720 187 719 163 719 b 121 719 73 719 63 719 b 56 719 50 713 50 706 b 50 699 56 693 63 693 b 73 693 121 694 163 694 b 175 694 186 694 197 694 b 197 693 197 693 197 693 b 197 658 200 428 202 244 b 202 185 203 132 203 92 b 204 52 204 25 204 17 b 204 15 204 14 205 12 l 75 12 b 68 12 63 6 63 -1 b 63 -8 68 -14 75 -14 l 247 -14 b 254 -14 260 -8 260 -1 b 260 0 260 1 260 2 b 262 5 263 8 264 12 b 281 114 270 662 263 694 z"},"U":{"x_min":0,"x_max":838,"ha":838,"o":"m 861 173 b 855 175 847 172 845 166 b 843 161 840 155 838 149 b 832 134 825 115 816 95 b 816 94 816 94 815 93 b 806 74 789 38 776 38 b 775 38 770 38 764 44 b 717 92 696 348 705 746 b 706 755 706 761 706 763 b 706 777 691 787 670 787 b 648 787 640 777 639 768 b 639 768 639 768 639 768 b 637 755 603 550 554 357 b 527 254 501 172 475 114 b 457 72 441 47 427 32 b 413 16 402 13 395 13 b 373 13 356 47 347 113 b 338 179 337 267 336 361 b 334 576 332 780 233 780 b 180 780 133 712 104 656 b 102 653 101 650 99 647 b 71 591 50 530 50 511 b 50 504 56 498 63 498 b 70 498 76 504 76 511 b 76 522 93 577 121 635 b 121 635 121 635 122 635 l 123 638 b 156 699 186 731 214 731 b 232 731 246 697 253 635 b 261 571 262 485 263 395 b 265 175 267 -33 363 -33 b 391 -33 420 -17 447 15 b 448 16 449 17 450 19 b 466 38 482 66 499 103 b 525 163 552 246 579 350 b 602 440 621 531 635 604 b 631 263 657 62 712 6 b 724 -7 737 -13 752 -13 b 786 -13 812 26 836 77 b 836 77 836 77 836 77 b 837 80 839 83 840 86 l 841 87 b 841 88 841 89 841 89 b 848 105 855 122 862 139 b 864 146 866 151 868 156 b 871 163 868 170 861 173 z"},"o":{"x_min":0,"x_max":312,"ha":312,"o":"m 338 168 b 333 173 324 173 319 168 b 306 155 274 134 237 122 b 239 133 240 144 240 155 b 242 213 225 267 193 299 b 174 319 150 330 126 330 b 82 330 52 301 47 254 b 45 241 46 228 48 214 b 47 215 45 215 43 215 b 25 216 4 204 2 180 b -5 110 9 52 41 16 b 61 -6 88 -19 116 -19 b 148 -19 180 0 203 34 b 215 51 225 72 231 94 b 279 105 320 133 337 150 b 342 155 342 163 338 168 z m 140 25 b 126 25 114 30 105 40 b 86 59 77 95 76 147 b 95 120 122 98 155 91 b 171 88 186 87 202 89 b 192 65 172 25 140 25 z m 215 156 b 214 142 213 128 210 115 b 194 113 177 113 160 116 b 113 126 65 184 72 251 b 74 271 84 304 126 304 b 143 304 160 296 175 281 b 201 254 216 207 215 156 z"},"N":{"x_min":0,"x_max":811,"ha":811,"o":"m 834 173 b 827 175 820 172 817 166 b 815 161 813 155 810 149 b 804 134 796 115 787 95 b 787 94 786 94 786 93 b 776 73 758 38 743 38 b 739 38 734 40 729 45 b 706 69 654 185 668 746 b 668 755 668 761 668 763 b 668 768 666 777 650 780 b 643 781 635 781 630 781 b 622 781 614 781 608 779 b 566 774 530 683 466 512 b 421 394 368 251 306 149 b 347 289 344 496 343 671 b 342 705 342 737 342 767 b 342 784 326 796 303 796 b 295 796 286 794 280 790 b 271 785 266 777 266 767 b 266 725 267 681 268 635 b 271 412 276 135 192 50 b 175 32 155 24 131 24 b 98 24 76 47 76 82 b 76 82 76 83 76 83 b 76 96 80 108 87 119 b 103 142 133 153 172 148 b 179 147 185 152 186 159 b 187 166 182 173 175 174 b 109 181 78 152 66 133 b 56 119 50 101 50 83 b 50 83 50 83 50 82 b 50 82 50 81 50 80 b 50 65 54 50 61 36 b 78 5 109 -13 147 -13 b 184 -13 216 1 243 28 b 243 28 244 29 245 30 b 245 30 245 30 245 30 b 345 118 423 327 490 503 b 516 573 540 639 562 685 b 578 719 590 736 598 745 b 598 743 598 741 598 738 b 585 319 610 73 674 7 b 687 -6 702 -13 718 -13 b 757 -13 788 37 811 87 b 820 105 827 123 834 139 b 836 145 839 151 841 156 b 843 162 840 170 834 173 z"},"+":{"x_min":0,"x_max":703,"ha":703,"o":"m 625 376 b 605 380 500 383 386 384 b 388 475 389 560 390 585 b 390 599 378 611 361 613 b 343 615 327 605 324 588 b 320 569 316 472 315 384 b 218 384 125 382 80 376 b 58 373 49 359 50 347 b 51 335 61 321 83 321 b 100 320 183 319 279 318 b 291 318 303 318 315 318 b 315 247 316 146 324 96 b 326 77 340 68 353 68 b 354 68 354 68 355 68 b 368 69 382 80 382 99 b 383 114 384 189 385 276 b 385 289 385 303 385 317 b 492 316 594 315 623 314 b 623 314 623 314 624 314 b 639 314 651 326 653 342 b 654 356 646 372 625 376 z"},"G":{"x_min":0,"x_max":728,"ha":728,"o":"m 751 173 b 745 175 737 172 735 166 b 708 102 672 71 632 49 b 632 99 631 151 631 203 b 630 241 630 270 629 291 b 629 308 629 318 629 324 b 629 345 611 358 593 358 b 585 358 576 355 570 349 b 563 343 560 334 560 324 b 560 282 549 240 529 202 b 529 202 529 202 529 202 l 529 201 b 515 178 477 114 414 114 b 361 114 320 141 290 193 b 263 241 248 307 248 381 b 248 430 255 479 267 524 b 290 522 313 522 337 524 b 400 530 455 551 488 580 b 521 609 540 648 541 685 b 542 699 540 713 535 726 b 522 760 489 780 446 780 b 367 780 296 731 246 644 b 232 618 219 590 209 559 b 196 563 183 568 170 573 b 127 592 76 632 76 709 b 76 716 70 722 63 722 b 56 722 50 716 50 709 b 50 638 89 582 160 550 b 173 544 187 539 202 535 b 187 482 178 424 178 367 b 178 184 258 66 380 66 b 429 66 480 94 520 143 b 532 157 542 173 551 189 b 555 196 558 202 561 209 b 561 207 561 205 561 203 b 561 186 562 167 562 144 b 562 107 563 63 563 16 b 504 -12 446 -48 407 -151 b 373 -242 387 -324 416 -366 b 431 -387 450 -399 469 -399 b 501 -399 529 -388 551 -365 b 615 -301 629 -154 631 20 b 679 45 726 79 758 156 b 761 163 758 170 751 173 z m 306 623 b 335 673 386 734 469 734 b 485 734 497 730 504 722 b 514 712 516 697 515 686 b 515 686 515 685 515 685 b 514 655 498 623 471 600 b 429 562 350 544 274 549 b 283 575 294 600 306 623 z m 498 -345 b 487 -356 475 -362 462 -362 b 454 -362 446 -358 439 -350 b 421 -330 412 -291 413 -246 b 415 -215 422 -185 431 -160 b 464 -73 511 -39 562 -13 b 560 -147 547 -295 498 -345 z"},"q":{"x_min":0,"x_max":363,"ha":363,"o":"m 431 -192 b 431 -191 431 -191 431 -191 b 431 -191 430 -191 430 -190 b 423 -151 411 -114 394 -83 b 370 -39 340 -10 305 4 b 326 18 345 38 359 56 b 390 94 411 135 418 157 b 420 164 416 171 409 173 b 402 175 395 171 393 165 b 380 123 320 30 270 15 b 270 47 270 78 271 104 b 271 126 271 146 271 163 b 271 175 272 211 272 242 b 273 270 273 296 273 305 b 273 315 269 324 262 330 b 256 335 248 338 239 338 b 222 338 204 325 204 305 b 204 303 204 301 204 298 b 185 321 159 333 130 333 b 46 333 0 233 0 139 b 0 99 8 63 24 36 b 42 4 69 -13 102 -13 b 138 -13 171 13 196 60 b 198 64 200 67 201 71 b 200 -128 207 -293 276 -362 b 299 -386 328 -398 363 -398 b 409 -398 437 -346 437 -262 b 437 -239 435 -215 431 -192 z m 203 231 b 203 211 202 189 202 166 b 199 138 190 109 178 82 b 169 65 148 27 117 27 b 91 27 71 75 71 140 b 71 179 78 218 92 246 b 102 267 119 292 148 292 b 168 292 197 273 202 239 b 202 238 203 236 203 235 b 203 234 203 233 203 232 b 203 232 203 232 203 232 b 203 232 203 231 203 231 z m 390 -350 b 384 -357 378 -360 371 -360 b 356 -360 343 -355 332 -343 b 281 -292 271 -142 270 -14 b 320 -20 353 -60 371 -95 b 387 -124 399 -159 405 -195 b 405 -195 405 -195 405 -195 b 421 -301 400 -339 390 -350 z"},"d":{"x_min":0,"x_max":403,"ha":403,"o":"m 429 173 b 423 176 415 173 412 167 b 410 163 408 159 406 154 b 398 135 386 110 372 86 b 372 85 371 85 371 84 b 359 64 338 35 316 35 b 272 35 271 131 271 162 b 271 176 270 192 270 209 b 269 239 269 275 268 314 b 309 339 356 396 392 467 b 404 491 415 515 423 537 b 424 542 426 547 428 554 b 428 554 428 554 428 554 b 441 598 445 637 438 665 b 430 702 403 722 363 722 b 328 722 298 710 275 687 b 212 623 201 477 201 299 b 183 322 158 334 130 334 b 46 334 0 234 0 140 b 0 100 8 63 24 37 b 42 5 69 -12 102 -12 b 123 -12 143 -2 161 16 b 175 31 188 50 197 71 b 201 77 204 84 206 91 b 214 41 233 -12 285 -12 b 329 -12 364 24 389 65 b 390 66 390 66 391 67 b 394 73 397 79 400 83 b 401 85 402 86 403 88 b 403 89 404 90 404 91 b 414 110 423 128 429 143 b 432 148 434 152 435 156 b 438 163 436 170 429 173 z m 369 478 b 340 420 302 371 269 345 b 270 473 281 617 331 667 b 342 679 355 685 370 685 b 384 685 395 680 402 670 b 419 643 412 590 403 559 b 403 559 403 559 403 559 b 401 555 400 550 398 545 b 398 545 398 545 398 545 b 398 544 398 543 397 543 b 390 522 381 500 369 478 z m 175 83 b 175 83 175 83 175 82 b 156 46 136 28 117 28 b 91 28 71 76 71 141 b 71 180 78 219 92 247 b 102 268 119 293 148 293 b 184 293 201 254 201 217 b 201 216 201 215 201 214 b 201 207 201 201 201 194 b 201 194 201 194 201 194 b 201 193 201 192 201 191 b 201 160 191 118 175 83 z"},"1":{"x_min":0,"x_max":159,"ha":159,"o":"m 99 714 b 80 717 64 706 60 688 b 51 647 43 103 60 -2 b 62 -21 77 -31 91 -31 b 91 -31 92 -31 92 -31 b 106 -30 121 -19 121 1 b 122 18 123 128 124 256 b 126 432 128 650 129 685 b 130 700 117 712 99 714 z"},"5":{"x_min":0,"x_max":439,"ha":439,"o":"m 404 716 b 399 721 391 720 386 714 b 364 687 253 698 164 711 b 163 712 162 712 161 712 b 158 713 155 714 151 714 b 148 715 144 715 140 714 b 140 714 139 714 139 714 b 125 712 115 703 112 689 b 103 650 95 524 111 421 b 114 404 126 395 139 394 b 140 393 140 393 141 393 b 143 393 145 393 147 393 b 208 392 255 373 287 336 b 315 304 330 259 330 209 b 330 163 317 117 294 82 b 270 46 238 27 204 27 b 168 27 140 47 123 65 b 96 92 77 130 76 158 b 76 159 76 161 76 162 b 76 169 70 174 63 174 b 56 174 50 169 50 162 b 50 161 50 161 50 161 b 50 160 50 160 50 159 b 50 124 66 72 104 34 b 135 3 177 -14 224 -14 b 323 -14 399 109 399 215 b 399 272 379 321 340 357 b 301 393 244 414 172 418 b 173 420 173 422 173 424 b 173 435 174 455 175 479 b 177 543 179 639 181 683 b 226 677 271 672 309 672 b 354 672 390 679 406 698 b 410 703 410 712 404 716 z"}}}
